<svg xmlns="http://www.w3.org/2000/svg" xmlns:xlink="http://www.w3.org/1999/xlink" width="500" zoomAndPan="magnify" viewBox="0 0 375 374.999991" height="500" preserveAspectRatio="xMidYMid meet" version="1.0"><defs><g/><clipPath id="9beb8a8dc6"><path d="M 31.769531 36 L 343.019531 36 L 343.019531 348 L 31.769531 348 Z M 31.769531 36 " clip-rule="nonzero"/></clipPath></defs><g clip-path="url(#9beb8a8dc6)"><path fill="#b7db63" d="M 343.21875 191.945312 C 343.21875 194.492188 343.15625 197.042969 343.03125 199.585938 C 342.90625 202.132812 342.71875 204.671875 342.46875 207.210938 C 342.222656 209.746094 341.910156 212.273438 341.535156 214.796875 C 341.160156 217.316406 340.726562 219.828125 340.226562 222.324219 C 339.730469 224.824219 339.171875 227.3125 338.554688 229.785156 C 337.933594 232.253906 337.253906 234.710938 336.515625 237.148438 C 335.773438 239.589844 334.976562 242.007812 334.117188 244.40625 C 333.257812 246.808594 332.34375 249.183594 331.367188 251.539062 C 330.390625 253.894531 329.359375 256.222656 328.269531 258.527344 C 327.179688 260.832031 326.035156 263.105469 324.832031 265.355469 C 323.632812 267.601562 322.375 269.816406 321.066406 272.003906 C 319.753906 274.191406 318.390625 276.34375 316.976562 278.460938 C 315.558594 280.582031 314.09375 282.664062 312.574219 284.710938 C 311.058594 286.757812 309.488281 288.765625 307.871094 290.734375 C 306.257812 292.707031 304.589844 294.636719 302.878906 296.523438 C 301.167969 298.410156 299.410156 300.257812 297.609375 302.058594 C 295.808594 303.863281 293.960938 305.617188 292.074219 307.328125 C 290.1875 309.042969 288.257812 310.707031 286.285156 312.320312 C 284.316406 313.9375 282.308594 315.507812 280.261719 317.023438 C 278.214844 318.542969 276.132812 320.011719 274.011719 321.425781 C 271.894531 322.839844 269.742188 324.203125 267.554688 325.515625 C 265.367188 326.824219 263.152344 328.082031 260.902344 329.28125 C 258.65625 330.484375 256.378906 331.628906 254.078125 332.71875 C 251.773438 333.808594 249.445312 334.839844 247.089844 335.816406 C 244.734375 336.792969 242.359375 337.707031 239.957031 338.566406 C 237.558594 339.425781 235.140625 340.226562 232.699219 340.964844 C 230.261719 341.703125 227.804688 342.382812 225.332031 343.003906 C 222.863281 343.621094 220.375 344.179688 217.875 344.679688 C 215.375 345.175781 212.867188 345.609375 210.34375 345.984375 C 207.824219 346.359375 205.296875 346.671875 202.757812 346.921875 C 200.222656 347.171875 197.683594 347.355469 195.136719 347.484375 C 192.589844 347.609375 190.042969 347.671875 187.496094 347.671875 C 184.949219 347.671875 182.402344 347.609375 179.855469 347.484375 C 177.308594 347.355469 174.769531 347.171875 172.230469 346.921875 C 169.695312 346.671875 167.167969 346.359375 164.644531 345.984375 C 162.125 345.609375 159.613281 345.175781 157.117188 344.679688 C 154.617188 344.179688 152.128906 343.621094 149.65625 343.003906 C 147.1875 342.382812 144.730469 341.703125 142.292969 340.964844 C 139.851562 340.226562 137.433594 339.425781 135.035156 338.566406 C 132.632812 337.707031 130.257812 336.792969 127.902344 335.816406 C 125.546875 334.839844 123.21875 333.808594 120.914062 332.71875 C 118.609375 331.628906 116.335938 330.484375 114.085938 329.28125 C 111.839844 328.082031 109.625 326.824219 107.4375 325.515625 C 105.25 324.203125 103.097656 322.839844 100.980469 321.425781 C 98.859375 320.011719 96.777344 318.542969 94.730469 317.023438 C 92.683594 315.507812 90.675781 313.9375 88.707031 312.320312 C 86.734375 310.707031 84.804688 309.042969 82.917969 307.328125 C 81.03125 305.617188 79.183594 303.863281 77.382812 302.058594 C 75.578125 300.257812 73.824219 298.410156 72.113281 296.523438 C 70.398438 294.636719 68.734375 292.707031 67.121094 290.734375 C 65.503906 288.765625 63.933594 286.757812 62.417969 284.710938 C 60.898438 282.664062 59.429688 280.582031 58.015625 278.460938 C 56.601562 276.34375 55.238281 274.191406 53.925781 272.003906 C 52.617188 269.816406 51.359375 267.601562 50.160156 265.355469 C 48.957031 263.105469 47.8125 260.832031 46.722656 258.527344 C 45.632812 256.222656 44.601562 253.894531 43.625 251.539062 C 42.648438 249.183594 41.734375 246.808594 40.875 244.40625 C 40.015625 242.007812 39.214844 239.589844 38.476562 237.148438 C 37.738281 234.710938 37.058594 232.253906 36.4375 229.785156 C 35.820312 227.3125 35.261719 224.824219 34.761719 222.324219 C 34.265625 219.828125 33.832031 217.316406 33.457031 214.796875 C 33.082031 212.273438 32.769531 209.746094 32.519531 207.210938 C 32.269531 204.671875 32.082031 202.132812 31.957031 199.585938 C 31.832031 197.042969 31.769531 194.492188 31.769531 191.945312 C 31.769531 191.214844 31.84375 190.492188 31.984375 189.777344 C 32.128906 189.058594 32.339844 188.363281 32.617188 187.6875 C 32.898438 187.015625 33.238281 186.371094 33.644531 185.765625 C 34.050781 185.160156 34.511719 184.597656 35.027344 184.082031 C 35.546875 183.5625 36.109375 183.101562 36.714844 182.695312 C 37.320312 182.292969 37.964844 181.949219 38.636719 181.667969 C 39.3125 181.390625 40.007812 181.179688 40.722656 181.035156 C 41.441406 180.894531 42.164062 180.824219 42.894531 180.824219 C 43.625 180.824219 44.347656 180.894531 45.066406 181.035156 C 45.78125 181.179688 46.476562 181.390625 47.152344 181.667969 C 47.824219 181.949219 48.46875 182.292969 49.074219 182.695312 C 49.679688 183.101562 50.242188 183.5625 50.761719 184.082031 C 51.277344 184.597656 51.738281 185.160156 52.144531 185.765625 C 52.550781 186.371094 52.890625 187.015625 53.171875 187.6875 C 53.449219 188.363281 53.660156 189.058594 53.804688 189.777344 C 53.945312 190.492188 54.019531 191.214844 54.019531 191.945312 C 54.015625 194.40625 54.078125 196.863281 54.210938 199.320312 C 54.34375 201.777344 54.542969 204.230469 54.808594 206.675781 C 55.078125 209.121094 55.410156 211.558594 55.8125 213.984375 C 56.214844 216.410156 56.683594 218.824219 57.21875 221.226562 C 57.753906 223.628906 58.355469 226.011719 59.023438 228.382812 C 59.6875 230.75 60.421875 233.097656 61.21875 235.425781 C 62.015625 237.753906 62.875 240.058594 63.796875 242.335938 C 64.722656 244.617188 65.707031 246.871094 66.753906 249.097656 C 67.804688 251.320312 68.914062 253.515625 70.082031 255.683594 C 71.25 257.847656 72.480469 259.976562 73.765625 262.074219 C 75.054688 264.171875 76.398438 266.230469 77.796875 268.253906 C 79.199219 270.277344 80.65625 272.257812 82.164062 274.199219 C 83.675781 276.144531 85.238281 278.042969 86.851562 279.898438 C 88.46875 281.753906 90.132812 283.5625 91.847656 285.328125 C 93.5625 287.089844 95.324219 288.808594 97.132812 290.472656 C 98.945312 292.140625 100.796875 293.757812 102.695312 295.320312 C 104.597656 296.886719 106.535156 298.394531 108.519531 299.851562 C 110.5 301.308594 112.523438 302.710938 114.582031 304.058594 C 116.640625 305.402344 118.738281 306.691406 120.867188 307.921875 C 123 309.148438 125.160156 310.320312 127.355469 311.429688 C 129.550781 312.542969 131.777344 313.589844 134.03125 314.578125 C 136.28125 315.566406 138.5625 316.492188 140.867188 317.351562 C 143.171875 318.214844 145.496094 319.011719 147.84375 319.746094 C 150.195312 320.480469 152.5625 321.148438 154.945312 321.75 C 157.332031 322.351562 159.730469 322.890625 162.144531 323.359375 C 164.5625 323.828125 166.988281 324.234375 169.425781 324.570312 C 171.863281 324.90625 174.304688 325.175781 176.757812 325.375 C 179.210938 325.578125 181.664062 325.710938 184.125 325.777344 C 186.585938 325.84375 189.042969 325.839844 191.503906 325.769531 C 193.960938 325.699219 196.417969 325.5625 198.871094 325.355469 C 201.320312 325.148438 203.765625 324.878906 206.203125 324.535156 C 208.640625 324.195312 211.0625 323.789062 213.476562 323.3125 C 215.890625 322.839844 218.292969 322.296875 220.675781 321.691406 C 223.058594 321.085938 225.425781 320.414062 227.773438 319.675781 C 230.121094 318.9375 232.445312 318.136719 234.746094 317.269531 C 237.050781 316.402344 239.328125 315.476562 241.578125 314.484375 C 243.832031 313.492188 246.054688 312.4375 248.246094 311.324219 C 250.441406 310.210938 252.601562 309.035156 254.730469 307.800781 C 256.859375 306.566406 258.949219 305.277344 261.007812 303.925781 C 263.066406 302.578125 265.085938 301.171875 267.0625 299.710938 C 269.042969 298.25 270.980469 296.738281 272.878906 295.167969 C 274.773438 293.601562 276.625 291.984375 278.433594 290.3125 C 280.238281 288.644531 281.996094 286.925781 283.710938 285.15625 C 285.421875 283.390625 287.082031 281.578125 288.695312 279.71875 C 290.308594 277.859375 291.867188 275.957031 293.371094 274.011719 C 294.878906 272.070312 296.332031 270.082031 297.730469 268.058594 C 299.125 266.035156 300.464844 263.972656 301.75 261.871094 C 303.03125 259.773438 304.257812 257.640625 305.421875 255.472656 C 306.585938 253.308594 307.691406 251.109375 308.738281 248.882812 C 309.78125 246.652344 310.761719 244.398438 311.683594 242.117188 C 312.601562 239.835938 313.457031 237.53125 314.25 235.199219 C 315.042969 232.871094 315.769531 230.523438 316.433594 228.152344 C 317.097656 225.785156 317.691406 223.398438 318.222656 220.996094 C 318.753906 218.59375 319.21875 216.179688 319.617188 213.75 C 320.015625 211.324219 320.34375 208.886719 320.609375 206.4375 C 320.871094 203.992188 321.066406 201.542969 321.195312 199.085938 C 321.320312 196.628906 321.382812 194.167969 321.375 191.707031 C 321.367188 189.25 321.289062 186.789062 321.144531 184.335938 C 321.003906 181.878906 320.789062 179.429688 320.511719 176.984375 C 320.234375 174.539062 319.886719 172.105469 319.472656 169.679688 C 319.058594 167.253906 318.578125 164.839844 318.03125 162.441406 C 317.484375 160.042969 316.875 157.664062 316.195312 155.296875 C 315.515625 152.933594 314.773438 150.589844 313.96875 148.265625 C 313.160156 145.941406 312.289062 143.640625 311.355469 141.363281 C 310.417969 139.089844 309.421875 136.839844 308.363281 134.621094 C 307.304688 132.398438 306.1875 130.207031 305.007812 128.050781 C 303.828125 125.890625 302.589844 123.765625 301.292969 121.675781 C 299.996094 119.585938 298.640625 117.53125 297.230469 115.515625 C 295.820312 113.5 294.355469 111.523438 292.835938 109.589844 C 291.316406 107.652344 289.746094 105.761719 288.121094 103.914062 C 286.496094 102.066406 284.824219 100.261719 283.101562 98.507812 C 281.375 96.75 279.605469 95.042969 277.789062 93.386719 C 275.972656 91.730469 274.109375 90.121094 272.203125 88.566406 C 270.296875 87.011719 268.347656 85.511719 266.359375 84.0625 C 264.371094 82.613281 262.34375 81.222656 260.277344 79.886719 C 258.210938 78.550781 256.109375 77.273438 253.972656 76.054688 C 251.835938 74.832031 249.667969 73.671875 247.464844 72.574219 C 245.265625 71.472656 243.035156 70.433594 240.777344 69.457031 C 238.519531 68.480469 236.238281 67.566406 233.929688 66.714844 C 231.621094 65.867188 229.289062 65.078125 226.9375 64.355469 C 224.585938 63.632812 222.214844 62.976562 219.828125 62.386719 C 217.441406 61.792969 215.039062 61.269531 212.621094 60.8125 C 210.203125 60.351562 207.777344 59.960938 205.335938 59.636719 C 202.898438 59.3125 200.453125 59.054688 198 58.863281 C 195.546875 58.675781 193.089844 58.554688 190.628906 58.5 C 188.171875 58.445312 185.710938 58.460938 183.253906 58.539062 C 180.792969 58.621094 178.339844 58.773438 175.886719 58.988281 C 173.4375 59.207031 170.996094 59.492188 168.558594 59.84375 C 166.125 60.195312 163.703125 60.613281 161.289062 61.101562 C 158.878906 61.585938 156.480469 62.140625 154.101562 62.757812 C 151.71875 63.375 149.355469 64.058594 147.011719 64.808594 C 144.667969 65.558594 142.347656 66.371094 140.050781 67.246094 C 137.75 68.125 135.476562 69.0625 133.230469 70.066406 C 130.984375 71.066406 128.765625 72.132812 126.578125 73.257812 C 124.390625 74.382812 122.234375 75.566406 120.113281 76.808594 C 117.988281 78.054688 115.902344 79.355469 113.851562 80.714844 L 120.757812 80.714844 C 121.488281 80.714844 122.210938 80.785156 122.925781 80.925781 C 123.644531 81.070312 124.339844 81.28125 125.011719 81.558594 C 125.6875 81.839844 126.328125 82.183594 126.9375 82.589844 C 127.542969 82.992188 128.105469 83.453125 128.621094 83.972656 C 129.136719 84.488281 129.601562 85.050781 130.003906 85.65625 C 130.410156 86.265625 130.753906 86.90625 131.035156 87.582031 C 131.3125 88.253906 131.523438 88.949219 131.667969 89.667969 C 131.808594 90.382812 131.878906 91.105469 131.878906 91.835938 C 131.878906 92.566406 131.808594 93.289062 131.667969 94.007812 C 131.523438 94.722656 131.3125 95.417969 131.035156 96.09375 C 130.753906 96.769531 130.410156 97.410156 130.003906 98.015625 C 129.601562 98.625 129.136719 99.1875 128.621094 99.703125 C 128.105469 100.21875 127.542969 100.679688 126.9375 101.085938 C 126.328125 101.492188 125.6875 101.832031 125.011719 102.113281 C 124.339844 102.394531 123.644531 102.605469 122.925781 102.746094 C 122.210938 102.890625 121.488281 102.960938 120.757812 102.960938 L 87.386719 102.960938 C 86.65625 102.960938 85.933594 102.890625 85.21875 102.746094 C 84.5 102.605469 83.804688 102.394531 83.128906 102.113281 C 82.453125 101.835938 81.8125 101.492188 81.207031 101.085938 C 80.597656 100.679688 80.035156 100.21875 79.519531 99.703125 C 79.003906 99.1875 78.542969 98.625 78.136719 98.019531 C 77.730469 97.410156 77.386719 96.769531 77.109375 96.09375 C 76.828125 95.417969 76.617188 94.722656 76.476562 94.007812 C 76.335938 93.289062 76.265625 92.566406 76.265625 91.835938 L 76.265625 58.46875 C 76.265625 57.738281 76.335938 57.011719 76.476562 56.296875 C 76.621094 55.582031 76.832031 54.886719 77.109375 54.210938 C 77.390625 53.535156 77.734375 52.894531 78.140625 52.289062 C 78.542969 51.679688 79.003906 51.117188 79.523438 50.601562 C 80.039062 50.085938 80.601562 49.625 81.207031 49.21875 C 81.816406 48.8125 82.457031 48.46875 83.128906 48.191406 C 83.804688 47.910156 84.5 47.699219 85.21875 47.558594 C 85.933594 47.414062 86.65625 47.34375 87.386719 47.34375 C 88.117188 47.34375 88.839844 47.414062 89.558594 47.558594 C 90.273438 47.699219 90.96875 47.910156 91.644531 48.191406 C 92.320312 48.46875 92.960938 48.8125 93.566406 49.21875 C 94.175781 49.625 94.734375 50.085938 95.253906 50.601562 C 95.769531 51.117188 96.230469 51.679688 96.636719 52.289062 C 97.042969 52.894531 97.382812 53.535156 97.664062 54.210938 C 97.941406 54.886719 98.152344 55.582031 98.296875 56.296875 C 98.4375 57.011719 98.511719 57.738281 98.511719 58.46875 L 98.511719 64.183594 C 101.410156 62.160156 104.378906 60.242188 107.410156 58.421875 C 110.441406 56.601562 113.53125 54.886719 116.683594 53.277344 C 119.832031 51.667969 123.03125 50.167969 126.28125 48.777344 C 129.535156 47.382812 132.828125 46.105469 136.167969 44.9375 C 139.503906 43.773438 142.878906 42.71875 146.289062 41.785156 C 149.699219 40.847656 153.136719 40.027344 156.601562 39.324219 C 160.070312 38.621094 163.554688 38.039062 167.058594 37.574219 C 170.566406 37.109375 174.082031 36.761719 177.613281 36.539062 C 181.140625 36.3125 184.675781 36.207031 188.210938 36.222656 C 191.746094 36.238281 195.277344 36.375 198.804688 36.628906 C 202.332031 36.886719 205.847656 37.261719 209.347656 37.757812 C 212.847656 38.253906 216.328125 38.867188 219.789062 39.597656 C 223.25 40.332031 226.679688 41.179688 230.082031 42.148438 C 233.484375 43.113281 236.847656 44.195312 240.175781 45.390625 C 243.503906 46.585938 246.789062 47.894531 250.027344 49.3125 C 253.265625 50.734375 256.453125 52.261719 259.585938 53.898438 C 262.722656 55.535156 265.796875 57.277344 268.8125 59.121094 C 271.828125 60.96875 274.78125 62.914062 277.664062 64.960938 C 280.546875 67.011719 283.355469 69.152344 286.09375 71.390625 C 288.832031 73.628906 291.488281 75.960938 294.070312 78.378906 C 296.648438 80.800781 299.140625 83.304688 301.550781 85.894531 C 303.957031 88.484375 306.273438 91.152344 308.5 93.902344 C 310.726562 96.648438 312.855469 99.46875 314.890625 102.363281 C 316.925781 105.253906 318.859375 108.214844 320.691406 111.238281 C 322.523438 114.261719 324.25 117.34375 325.871094 120.488281 C 327.496094 123.628906 329.007812 126.824219 330.414062 130.070312 C 331.816406 133.316406 333.109375 136.605469 334.289062 139.9375 C 335.472656 143.269531 336.535156 146.640625 337.488281 150.046875 C 338.4375 153.453125 339.273438 156.886719 339.988281 160.351562 C 340.707031 163.8125 341.304688 167.296875 341.78125 170.800781 C 342.261719 174.304688 342.621094 177.820312 342.863281 181.347656 C 343.101562 184.875 343.222656 188.410156 343.21875 191.945312 Z M 287.605469 191.945312 C 287.605469 193.582031 287.5625 195.222656 287.484375 196.859375 C 287.402344 198.492188 287.28125 200.128906 287.121094 201.757812 C 286.960938 203.386719 286.761719 205.015625 286.519531 206.632812 C 286.28125 208.253906 286 209.867188 285.679688 211.476562 C 285.363281 213.082031 285.003906 214.679688 284.605469 216.269531 C 284.207031 217.859375 283.769531 219.4375 283.292969 221.003906 C 282.816406 222.574219 282.304688 224.128906 281.753906 225.671875 C 281.199219 227.214844 280.609375 228.742188 279.984375 230.253906 C 279.355469 231.769531 278.695312 233.265625 277.992188 234.746094 C 277.292969 236.226562 276.554688 237.691406 275.785156 239.136719 C 275.011719 240.582031 274.203125 242.007812 273.363281 243.410156 C 272.519531 244.816406 271.644531 246.199219 270.734375 247.5625 C 269.824219 248.925781 268.878906 250.265625 267.902344 251.582031 C 266.929688 252.894531 265.921875 254.1875 264.882812 255.453125 C 263.839844 256.71875 262.773438 257.960938 261.671875 259.175781 C 260.570312 260.386719 259.441406 261.574219 258.285156 262.734375 C 257.125 263.890625 255.9375 265.019531 254.726562 266.121094 C 253.511719 267.222656 252.269531 268.292969 251.003906 269.332031 C 249.738281 270.371094 248.445312 271.378906 247.128906 272.351562 C 245.816406 273.328125 244.476562 274.273438 243.113281 275.183594 C 241.75 276.09375 240.367188 276.96875 238.960938 277.8125 C 237.558594 278.652344 236.132812 279.460938 234.6875 280.234375 C 233.242188 281.003906 231.777344 281.742188 230.296875 282.441406 C 228.816406 283.144531 227.320312 283.808594 225.804688 284.433594 C 224.292969 285.0625 222.765625 285.648438 221.222656 286.203125 C 219.679688 286.753906 218.125 287.269531 216.554688 287.742188 C 214.988281 288.21875 213.410156 288.65625 211.820312 289.054688 C 210.230469 289.453125 208.632812 289.8125 207.027344 290.128906 C 205.417969 290.449219 203.804688 290.730469 202.183594 290.96875 C 200.5625 291.210938 198.9375 291.410156 197.308594 291.570312 C 195.679688 291.734375 194.042969 291.851562 192.40625 291.933594 C 190.773438 292.015625 189.132812 292.054688 187.496094 292.054688 C 185.859375 292.054688 184.21875 292.015625 182.582031 291.933594 C 180.949219 291.851562 179.3125 291.734375 177.683594 291.570312 C 176.054688 291.410156 174.425781 291.210938 172.808594 290.96875 C 171.1875 290.730469 169.574219 290.449219 167.964844 290.128906 C 166.359375 289.8125 164.761719 289.453125 163.171875 289.054688 C 161.582031 288.65625 160.003906 288.21875 158.4375 287.742188 C 156.867188 287.269531 155.3125 286.753906 153.769531 286.203125 C 152.226562 285.648438 150.699219 285.0625 149.1875 284.433594 C 147.671875 283.808594 146.175781 283.144531 144.695312 282.441406 C 143.214844 281.742188 141.75 281.003906 140.304688 280.234375 C 138.859375 279.460938 137.433594 278.652344 136.03125 277.8125 C 134.625 276.96875 133.242188 276.09375 131.878906 275.183594 C 130.515625 274.273438 129.175781 273.328125 127.859375 272.351562 C 126.546875 271.378906 125.253906 270.371094 123.988281 269.332031 C 122.722656 268.292969 121.480469 267.222656 120.265625 266.121094 C 119.054688 265.019531 117.867188 263.890625 116.707031 262.734375 C 115.550781 261.574219 114.421875 260.386719 113.320312 259.175781 C 112.21875 257.960938 111.148438 256.71875 110.109375 255.453125 C 109.070312 254.1875 108.0625 252.894531 107.089844 251.582031 C 106.113281 250.265625 105.167969 248.925781 104.257812 247.5625 C 103.347656 246.199219 102.472656 244.816406 101.628906 243.410156 C 100.789062 242.007812 99.980469 240.582031 99.207031 239.136719 C 98.4375 237.691406 97.699219 236.226562 97 234.746094 C 96.296875 233.265625 95.632812 231.769531 95.007812 230.253906 C 94.378906 228.742188 93.792969 227.214844 93.238281 225.671875 C 92.6875 224.128906 92.171875 222.574219 91.699219 221.003906 C 91.222656 219.4375 90.785156 217.859375 90.386719 216.269531 C 89.988281 214.679688 89.628906 213.082031 89.3125 211.476562 C 88.992188 209.867188 88.710938 208.253906 88.472656 206.632812 C 88.230469 205.015625 88.03125 203.386719 87.871094 201.757812 C 87.707031 200.128906 87.589844 198.492188 87.507812 196.859375 C 87.425781 195.222656 87.386719 193.582031 87.386719 191.945312 C 87.386719 190.308594 87.425781 188.667969 87.507812 187.035156 C 87.589844 185.398438 87.707031 183.761719 87.871094 182.132812 C 88.03125 180.503906 88.230469 178.878906 88.472656 177.257812 C 88.710938 175.636719 88.992188 174.023438 89.3125 172.414062 C 89.628906 170.808594 89.988281 169.210938 90.386719 167.621094 C 90.785156 166.03125 91.222656 164.453125 91.699219 162.886719 C 92.171875 161.316406 92.6875 159.761719 93.238281 158.21875 C 93.792969 156.675781 94.378906 155.148438 95.007812 153.636719 C 95.632812 152.121094 96.296875 150.625 97 149.144531 C 97.699219 147.664062 98.4375 146.199219 99.207031 144.753906 C 99.980469 143.308594 100.789062 141.882812 101.628906 140.480469 C 102.472656 139.074219 103.347656 137.691406 104.257812 136.328125 C 105.167969 134.964844 106.113281 133.625 107.089844 132.3125 C 108.0625 130.996094 109.070312 129.703125 110.109375 128.4375 C 111.148438 127.171875 112.21875 125.929688 113.320312 124.714844 C 114.421875 123.503906 115.550781 122.316406 116.707031 121.15625 C 117.867188 120 119.054688 118.871094 120.265625 117.769531 C 121.480469 116.667969 122.722656 115.601562 123.988281 114.558594 C 125.253906 113.519531 126.546875 112.511719 127.859375 111.539062 C 129.175781 110.5625 130.515625 109.617188 131.878906 108.707031 C 133.242188 107.796875 134.625 106.921875 136.03125 106.078125 C 137.433594 105.238281 138.859375 104.429688 140.304688 103.65625 C 141.75 102.886719 143.214844 102.148438 144.695312 101.449219 C 146.175781 100.746094 147.671875 100.085938 149.1875 99.457031 C 150.699219 98.832031 152.226562 98.242188 153.769531 97.6875 C 155.3125 97.136719 156.867188 96.621094 158.4375 96.148438 C 160.003906 95.671875 161.582031 95.234375 163.171875 94.835938 C 164.761719 94.4375 166.359375 94.078125 167.964844 93.761719 C 169.574219 93.441406 171.1875 93.160156 172.808594 92.921875 C 174.425781 92.679688 176.054688 92.480469 177.683594 92.320312 C 179.3125 92.160156 180.949219 92.039062 182.582031 91.957031 C 184.21875 91.878906 185.859375 91.835938 187.496094 91.835938 C 189.132812 91.839844 190.769531 91.878906 192.40625 91.960938 C 194.042969 92.042969 195.675781 92.167969 197.304688 92.328125 C 198.933594 92.492188 200.558594 92.691406 202.179688 92.933594 C 203.800781 93.175781 205.414062 93.457031 207.019531 93.777344 C 208.625 94.097656 210.222656 94.460938 211.808594 94.859375 C 213.398438 95.257812 214.976562 95.695312 216.542969 96.171875 C 218.109375 96.648438 219.664062 97.164062 221.207031 97.714844 C 222.75 98.269531 224.277344 98.859375 225.789062 99.488281 C 227.300781 100.113281 228.796875 100.777344 230.277344 101.480469 C 231.757812 102.179688 233.222656 102.917969 234.664062 103.691406 C 236.109375 104.460938 237.535156 105.269531 238.9375 106.113281 C 240.34375 106.953125 241.726562 107.832031 243.085938 108.742188 C 244.449219 109.652344 245.789062 110.59375 247.101562 111.570312 C 248.417969 112.546875 249.707031 113.554688 250.976562 114.59375 C 252.242188 115.632812 253.480469 116.703125 254.695312 117.800781 C 255.90625 118.902344 257.09375 120.03125 258.25 121.191406 C 259.410156 122.347656 260.539062 123.535156 261.640625 124.746094 C 262.738281 125.960938 263.808594 127.199219 264.847656 128.464844 C 265.886719 129.734375 266.894531 131.023438 267.871094 132.339844 C 268.847656 133.652344 269.789062 134.992188 270.699219 136.355469 C 271.609375 137.714844 272.488281 139.097656 273.328125 140.503906 C 274.171875 141.90625 274.980469 143.332031 275.75 144.777344 C 276.523438 146.21875 277.261719 147.683594 277.960938 149.164062 C 278.664062 150.644531 279.328125 152.140625 279.957031 153.652344 C 280.582031 155.164062 281.171875 156.691406 281.726562 158.234375 C 282.277344 159.777344 282.792969 161.332031 283.269531 162.898438 C 283.746094 164.464844 284.183594 166.042969 284.582031 167.632812 C 284.980469 169.21875 285.34375 170.816406 285.664062 172.421875 C 285.984375 174.027344 286.265625 175.640625 286.507812 177.261719 C 286.75 178.882812 286.949219 180.507812 287.113281 182.136719 C 287.273438 183.765625 287.398438 185.398438 287.480469 187.035156 C 287.5625 188.671875 287.601562 190.308594 287.605469 191.945312 Z M 227.035156 204.9375 L 198.617188 185.992188 L 198.617188 136.328125 C 198.617188 135.597656 198.546875 134.875 198.40625 134.160156 C 198.261719 133.441406 198.050781 132.746094 197.773438 132.074219 C 197.492188 131.398438 197.148438 130.757812 196.746094 130.148438 C 196.339844 129.542969 195.878906 128.980469 195.359375 128.464844 C 194.84375 127.949219 194.28125 127.488281 193.675781 127.082031 C 193.070312 126.675781 192.425781 126.332031 191.753906 126.054688 C 191.078125 125.773438 190.382812 125.5625 189.664062 125.421875 C 188.949219 125.277344 188.226562 125.207031 187.496094 125.207031 C 186.765625 125.207031 186.042969 125.277344 185.324219 125.421875 C 184.609375 125.5625 183.914062 125.773438 183.238281 126.054688 C 182.566406 126.332031 181.921875 126.675781 181.316406 127.082031 C 180.707031 127.488281 180.148438 127.949219 179.628906 128.464844 C 179.113281 128.980469 178.652344 129.542969 178.246094 130.148438 C 177.839844 130.757812 177.5 131.398438 177.21875 132.074219 C 176.941406 132.746094 176.730469 133.441406 176.585938 134.160156 C 176.445312 134.875 176.371094 135.597656 176.371094 136.328125 L 176.371094 191.945312 C 176.371094 192.859375 176.484375 193.761719 176.707031 194.652344 C 176.929688 195.539062 177.257812 196.386719 177.691406 197.195312 C 178.121094 198 178.644531 198.742188 179.261719 199.421875 C 179.875 200.097656 180.5625 200.691406 181.324219 201.199219 L 214.695312 223.445312 C 215.304688 223.84375 215.945312 224.175781 216.617188 224.449219 C 217.289062 224.71875 217.984375 224.921875 218.695312 225.058594 C 219.410156 225.195312 220.128906 225.261719 220.855469 225.253906 C 221.582031 225.25 222.300781 225.175781 223.011719 225.027344 C 223.722656 224.882812 224.410156 224.667969 225.082031 224.390625 C 225.75 224.109375 226.386719 223.765625 226.988281 223.359375 C 227.589844 222.953125 228.148438 222.496094 228.660156 221.980469 C 229.171875 221.464844 229.628906 220.90625 230.03125 220.300781 C 230.433594 219.699219 230.773438 219.0625 231.050781 218.390625 C 231.328125 217.71875 231.539062 217.027344 231.683594 216.316406 C 231.824219 215.605469 231.898438 214.886719 231.898438 214.160156 C 231.902344 213.433594 231.832031 212.714844 231.695312 212.003906 C 231.554688 211.292969 231.347656 210.597656 231.074219 209.925781 C 230.800781 209.253906 230.460938 208.617188 230.0625 208.011719 C 229.664062 207.402344 229.207031 206.84375 228.699219 206.324219 C 228.191406 205.808594 227.636719 205.347656 227.035156 204.9375 Z M 227.035156 204.9375 " fill-opacity="1" fill-rule="nonzero"/></g><g fill="#ffffff" fill-opacity="1"><g transform="translate(333.749983, 43.124997)"><g><path d="M 2.859375 -1.859375 L 2.953125 -1.6875 C 2.859375 -1.300781 2.738281 -0.890625 2.59375 -0.453125 C 2.457031 -0.0234375 2.300781 0.40625 2.125 0.84375 C 1.957031 1.28125 1.789062 1.6875 1.625 2.0625 L 0.65625 2.0625 C 0.757812 1.644531 0.863281 1.207031 0.96875 0.75 C 1.070312 0.289062 1.164062 -0.160156 1.25 -0.609375 C 1.34375 -1.066406 1.414062 -1.484375 1.46875 -1.859375 Z M 2.859375 -1.859375 "/></g></g></g></svg>