<svg xmlns="http://www.w3.org/2000/svg" xmlns:xlink="http://www.w3.org/1999/xlink" width="500" zoomAndPan="magnify" viewBox="0 0 375 374.999991" height="500" preserveAspectRatio="xMidYMid meet" version="1.0"><defs><g/><clipPath id="5e555be648"><path d="M 10.851562 10.851562 L 358.101562 10.851562 L 358.101562 358.101562 L 10.851562 358.101562 Z M 10.851562 10.851562 " clip-rule="nonzero"/></clipPath></defs><g clip-path="url(#5e555be648)"><path fill="#b7db63" d="M 184.566406 10.84375 C 88.390625 10.84375 10.828125 89.179688 10.828125 184.582031 C 10.828125 280.757812 89.167969 358.320312 184.566406 358.320312 C 280.742188 358.320312 358.304688 279.980469 358.304688 184.582031 C 358.304688 89.179688 280.742188 10.84375 184.566406 10.84375 Z M 292.378906 268.347656 C 287.722656 283.859375 266.78125 306.351562 247.390625 306.351562 L 245.839844 305.578125 C 217.144531 304.027344 177.585938 276.878906 141.132812 232.667969 L 127.949219 216.382812 C 91.492188 172.171875 72.101562 128.738281 76.757812 100.816406 C 79.859375 80.648438 109.332031 64.359375 126.394531 64.359375 C 134.929688 64.359375 138.03125 68.238281 138.804688 71.339844 C 148.113281 88.40625 160.523438 117.878906 160.523438 128.738281 L 160.523438 130.289062 C 158.195312 135.71875 153.542969 138.820312 149.664062 141.148438 C 144.234375 144.25 141.132812 146.574219 140.359375 152.003906 C 140.359375 153.554688 141.910156 162.089844 165.953125 191.5625 L 176.035156 203.972656 C 200.078125 232.667969 207.835938 235.773438 209.386719 235.773438 C 215.59375 236.546875 217.917969 234.21875 222.574219 229.566406 C 225.675781 225.6875 229.554688 221.8125 234.980469 221.035156 L 236.535156 221.035156 C 247.390625 223.363281 273.761719 240.425781 289.273438 253.609375 C 291.601562 254.386719 295.480469 258.265625 292.378906 268.347656 Z M 292.378906 268.347656 " fill-opacity="1" fill-rule="nonzero"/></g><g fill="#ffffff" fill-opacity="1"><g transform="translate(80.61539, 333.849969)"><g><path d="M 2.859375 -1.859375 L 2.953125 -1.6875 C 2.859375 -1.300781 2.738281 -0.890625 2.59375 -0.453125 C 2.457031 -0.0234375 2.300781 0.40625 2.125 0.84375 C 1.957031 1.28125 1.789062 1.6875 1.625 2.0625 L 0.65625 2.0625 C 0.757812 1.644531 0.863281 1.207031 0.96875 0.75 C 1.070312 0.289062 1.164062 -0.160156 1.25 -0.609375 C 1.34375 -1.066406 1.414062 -1.484375 1.46875 -1.859375 Z M 2.859375 -1.859375 "/></g></g></g></svg>