<svg xmlns="http://www.w3.org/2000/svg" xmlns:xlink="http://www.w3.org/1999/xlink" width="500" zoomAndPan="magnify" viewBox="0 0 375 374.999991" height="500" preserveAspectRatio="xMidYMid meet" version="1.0"><defs><g/><clipPath id="f5832ffd26"><path d="M 17.226562 35.179688 L 357.726562 35.179688 L 357.726562 339.679688 L 17.226562 339.679688 Z M 17.226562 35.179688 " clip-rule="nonzero"/></clipPath></defs><g clip-path="url(#f5832ffd26)"><path fill="#b7db63" d="M 321.675781 187.5625 C 321.675781 271.632812 253.523438 339.78125 169.457031 339.78125 C 85.390625 339.78125 17.226562 271.542969 17.226562 187.5625 C 17.226562 103.585938 85.367188 35.351562 169.4375 35.351562 C 174.492188 35.347656 179.535156 35.59375 184.566406 36.089844 C 189.597656 36.585938 194.589844 37.332031 199.546875 38.332031 C 204.503906 39.328125 209.394531 40.566406 214.226562 42.054688 C 219.0625 43.539062 223.804688 45.261719 228.464844 47.222656 C 233.125 49.183594 237.675781 51.371094 242.117188 53.785156 C 246.558594 56.199219 250.871094 58.828125 255.046875 61.675781 C 259.226562 64.519531 263.253906 67.566406 267.125 70.816406 C 271 74.0625 274.703125 77.496094 278.234375 81.117188 L 255.527344 103.824219 C 252.757812 100.972656 249.859375 98.265625 246.824219 95.703125 C 243.785156 93.136719 240.628906 90.734375 237.355469 88.484375 C 234.078125 86.234375 230.699219 84.15625 227.21875 82.242188 C 223.734375 80.332031 220.167969 78.59375 216.511719 77.039062 C 212.855469 75.480469 209.132812 74.109375 205.339844 72.925781 C 201.546875 71.738281 197.707031 70.742188 193.816406 69.941406 C 189.925781 69.136719 186.003906 68.527344 182.050781 68.113281 C 178.101562 67.699219 174.136719 67.484375 170.164062 67.464844 C 104.195312 67.070312 49.835938 120.652344 49.339844 186.65625 C 49.324219 188.785156 49.367188 190.910156 49.464844 193.035156 C 49.5625 195.15625 49.71875 197.277344 49.929688 199.394531 C 50.140625 201.511719 50.410156 203.617188 50.734375 205.71875 C 51.054688 207.820312 51.433594 209.914062 51.871094 211.996094 C 52.304688 214.078125 52.792969 216.144531 53.335938 218.199219 C 53.882812 220.257812 54.480469 222.296875 55.132812 224.320312 C 55.785156 226.34375 56.492188 228.347656 57.25 230.335938 C 58.011719 232.320312 58.820312 234.285156 59.683594 236.230469 C 60.546875 238.171875 61.464844 240.089844 62.429688 241.988281 C 63.394531 243.882812 64.410156 245.75 65.472656 247.589844 C 66.539062 249.429688 67.652344 251.242188 68.8125 253.023438 C 69.972656 254.804688 71.179688 256.554688 72.433594 258.273438 C 73.6875 259.988281 74.984375 261.671875 76.328125 263.320312 C 77.671875 264.96875 79.058594 266.582031 80.488281 268.15625 C 81.914062 269.730469 83.386719 271.265625 84.894531 272.761719 C 86.40625 274.261719 87.957031 275.714844 89.542969 277.128906 C 91.128906 278.546875 92.753906 279.917969 94.414062 281.246094 C 96.074219 282.574219 97.769531 283.855469 99.5 285.09375 C 101.226562 286.332031 102.988281 287.523438 104.78125 288.667969 C 106.570312 289.8125 108.394531 290.910156 110.242188 291.957031 C 112.09375 293.007812 113.96875 294.003906 115.875 294.953125 C 117.777344 295.902344 119.703125 296.800781 121.65625 297.644531 C 123.605469 298.492188 125.578125 299.285156 127.570312 300.027344 C 129.5625 300.765625 131.574219 301.457031 133.605469 302.089844 C 135.632812 302.722656 137.679688 303.304688 139.738281 303.832031 C 141.800781 304.355469 143.871094 304.828125 145.957031 305.242188 C 148.042969 305.660156 150.136719 306.019531 152.242188 306.324219 C 154.347656 306.628906 156.457031 306.875 158.578125 307.066406 C 160.695312 307.261719 162.816406 307.398438 164.941406 307.476562 C 167.066406 307.554688 169.191406 307.578125 171.316406 307.546875 C 173.445312 307.511719 175.566406 307.421875 177.6875 307.277344 C 179.808594 307.132812 181.925781 306.929688 184.035156 306.671875 C 186.148438 306.410156 188.25 306.097656 190.34375 305.726562 C 192.4375 305.355469 194.519531 304.933594 196.59375 304.449219 C 198.664062 303.96875 200.71875 303.433594 202.761719 302.84375 C 204.804688 302.253906 206.832031 301.609375 208.839844 300.914062 C 210.851562 300.214844 212.839844 299.464844 214.808594 298.664062 C 216.777344 297.859375 218.722656 297.003906 220.644531 296.097656 C 222.570312 295.191406 224.46875 294.234375 226.339844 293.226562 C 228.214844 292.21875 230.058594 291.164062 231.875 290.058594 C 233.691406 288.953125 235.476562 287.800781 237.230469 286.597656 C 238.988281 285.398438 240.710938 284.152344 242.398438 282.859375 C 244.085938 281.570312 245.742188 280.234375 247.359375 278.855469 C 248.976562 277.472656 250.558594 276.054688 252.101562 274.589844 C 253.644531 273.125 255.144531 271.621094 256.609375 270.078125 C 258.070312 268.535156 259.492188 266.953125 260.871094 265.335938 C 262.25 263.71875 263.585938 262.0625 264.875 260.371094 C 266.167969 258.683594 267.414062 256.960938 268.613281 255.203125 C 269.8125 253.449219 270.964844 251.664062 272.070312 249.84375 C 273.171875 248.027344 274.230469 246.183594 275.234375 244.308594 C 276.242188 242.4375 277.199219 240.539062 278.105469 238.613281 C 279.007812 236.691406 279.863281 234.746094 280.664062 232.773438 C 281.46875 230.804688 282.21875 228.816406 282.914062 226.808594 C 283.609375 224.796875 284.253906 222.773438 284.84375 220.730469 C 285.433594 218.6875 285.964844 216.628906 286.445312 214.558594 C 286.925781 212.484375 287.351562 210.402344 287.71875 208.308594 C 288.089844 206.214844 288.402344 204.113281 288.660156 202 C 288.917969 199.890625 289.117188 197.773438 289.265625 195.652344 C 289.410156 193.53125 289.496094 191.40625 289.53125 189.28125 C 289.5625 187.15625 289.539062 185.027344 289.457031 182.902344 C 289.378906 180.777344 289.238281 178.65625 289.046875 176.539062 C 288.855469 174.421875 288.605469 172.3125 288.300781 170.207031 C 287.992188 168.101562 287.632812 166.007812 287.214844 163.921875 C 286.800781 161.835938 286.328125 159.765625 285.800781 157.703125 L 311.273438 132.230469 C 314.71875 141.046875 317.3125 150.109375 319.0625 159.410156 C 320.808594 168.714844 321.679688 178.097656 321.675781 187.5625 Z M 177.023438 193.191406 L 140.578125 156.746094 C 139.53125 155.699219 138.433594 154.703125 137.289062 153.765625 C 136.144531 152.824219 134.957031 151.945312 133.726562 151.121094 C 132.496094 150.300781 131.226562 149.539062 129.921875 148.84375 C 128.617188 148.144531 127.277344 147.511719 125.910156 146.945312 C 124.542969 146.378906 123.152344 145.878906 121.734375 145.449219 C 120.316406 145.019531 118.882812 144.660156 117.429688 144.371094 C 115.976562 144.082031 114.515625 143.867188 113.042969 143.722656 C 111.570312 143.578125 110.089844 143.503906 108.609375 143.503906 C 107.128906 143.503906 105.652344 143.578125 104.179688 143.722656 C 102.707031 143.867188 101.242188 144.082031 99.792969 144.371094 C 98.339844 144.660156 96.90625 145.019531 95.488281 145.449219 C 94.070312 145.878906 92.679688 146.378906 91.308594 146.945312 C 89.941406 147.511719 88.605469 148.144531 87.300781 148.84375 C 85.992188 149.539062 84.726562 150.300781 83.496094 151.121094 C 82.261719 151.945312 81.074219 152.824219 79.929688 153.765625 C 78.785156 154.703125 77.691406 155.699219 76.644531 156.746094 L 145.03125 225.152344 L 169.996094 250.117188 C 170.453125 250.574219 170.957031 250.984375 171.496094 251.347656 C 172.039062 251.707031 172.609375 252.011719 173.210938 252.261719 C 173.8125 252.511719 174.429688 252.699219 175.070312 252.824219 C 175.707031 252.953125 176.351562 253.015625 177.003906 253.015625 C 177.652344 253.015625 178.296875 252.953125 178.9375 252.824219 C 179.574219 252.699219 180.195312 252.511719 180.796875 252.261719 C 181.398438 252.011719 181.96875 251.707031 182.507812 251.347656 C 183.050781 250.984375 183.550781 250.574219 184.011719 250.117188 L 208.972656 225.152344 L 357.773438 76.355469 C 356.726562 75.308594 355.628906 74.316406 354.484375 73.375 C 353.339844 72.4375 352.152344 71.554688 350.921875 70.734375 C 349.6875 69.910156 348.421875 69.148438 347.113281 68.453125 C 345.808594 67.753906 344.472656 67.121094 343.101562 66.554688 C 341.734375 65.988281 340.34375 65.492188 338.925781 65.0625 C 337.507812 64.632812 336.074219 64.273438 334.621094 63.984375 C 333.167969 63.695312 331.707031 63.476562 330.234375 63.332031 C 328.757812 63.1875 327.28125 63.113281 325.800781 63.113281 C 324.320312 63.113281 322.84375 63.1875 321.371094 63.332031 C 319.894531 63.476562 318.433594 63.695312 316.980469 63.984375 C 315.527344 64.273438 314.09375 64.632812 312.675781 65.0625 C 311.261719 65.492188 309.867188 65.988281 308.5 66.554688 C 307.132812 67.121094 305.792969 67.753906 304.488281 68.453125 C 303.183594 69.148438 301.914062 69.910156 300.683594 70.734375 C 299.453125 71.554688 298.261719 72.4375 297.117188 73.375 C 295.972656 74.316406 294.878906 75.308594 293.832031 76.355469 Z M 177.023438 193.191406 " fill-opacity="1" fill-rule="nonzero"/></g><g fill="#ffffff" fill-opacity="1"><g transform="translate(333.749983, 43.124997)"><g><path d="M 2.859375 -1.859375 L 2.953125 -1.6875 C 2.859375 -1.300781 2.738281 -0.890625 2.59375 -0.453125 C 2.457031 -0.0234375 2.300781 0.40625 2.125 0.84375 C 1.957031 1.28125 1.789062 1.6875 1.625 2.0625 L 0.65625 2.0625 C 0.757812 1.644531 0.863281 1.207031 0.96875 0.75 C 1.070312 0.289062 1.164062 -0.160156 1.25 -0.609375 C 1.34375 -1.066406 1.414062 -1.484375 1.46875 -1.859375 Z M 2.859375 -1.859375 "/></g></g></g></svg>