<svg xmlns="http://www.w3.org/2000/svg" xmlns:xlink="http://www.w3.org/1999/xlink" width="500" zoomAndPan="magnify" viewBox="0 0 375 374.999991" height="500" preserveAspectRatio="xMidYMid meet" version="1.0"><defs><g/><clipPath id="b3a9837f1c"><path d="M 3.222656 74 L 91 74 L 91 196 L 3.222656 196 Z M 3.222656 74 " clip-rule="nonzero"/></clipPath><clipPath id="39a6d6cc3d"><path d="M 136 264 L 169.683594 264 L 169.683594 301.769531 L 136 301.769531 Z M 136 264 " clip-rule="nonzero"/></clipPath><clipPath id="8cd2dde6e1"><path d="M 281 73.019531 L 371.472656 73.019531 L 371.472656 194 L 281 194 Z M 281 73.019531 " clip-rule="nonzero"/></clipPath></defs><g clip-path="url(#b3a9837f1c)"><path fill="#b7db63" d="M 61.429688 74.167969 L 3.222656 178.242188 L 32.191406 195.945312 L 90.398438 91.605469 L 61.429688 74.167969 " fill-opacity="1" fill-rule="nonzero"/></g><path fill="#b7db63" d="M 271.183594 194.070312 C 257.503906 184.949219 196.617188 148.46875 191.519531 145.515625 C 186.421875 142.570312 179.71875 140.691406 171.9375 142.300781 C 164.160156 143.910156 141.898438 170.195312 134.386719 173.144531 C 126.875 176.097656 107.027344 165.90625 107.027344 158.390625 C 107.027344 150.882812 128.484375 119.234375 128.484375 119.234375 C 128.484375 119.234375 121.511719 118.695312 112.125 116.820312 C 102.734375 114.941406 93.082031 110.382812 93.082031 110.382812 L 50.164062 188.703125 L 62.769531 206.675781 C 62.769531 206.675781 71.085938 200.507812 80.742188 202.117188 C 90.398438 203.722656 94.421875 212.574219 94.421875 212.574219 C 94.421875 212.574219 114.539062 203.457031 123.660156 211.234375 C 132.777344 219.011719 135.191406 230.011719 135.191406 230.011719 C 135.191406 230.011719 144.3125 231.617188 150.480469 235.375 C 156.648438 239.132812 155.308594 254.957031 158.527344 255.757812 C 161.746094 256.566406 176.230469 264.34375 178.910156 270.242188 C 181.59375 276.144531 175.425781 290.089844 178.910156 293.3125 C 182.398438 296.53125 195.273438 300.820312 210.292969 298.945312 C 225.316406 297.066406 224.78125 291.433594 223.972656 286.875 C 223.167969 282.316406 214.320312 281.242188 206.808594 276.949219 C 199.296875 272.65625 191.785156 266.488281 193.394531 263.804688 C 194.425781 262.085938 198.101562 263.011719 199.757812 263.542969 C 201.855469 264.769531 238.289062 282.582031 243.554688 282.582031 C 249.1875 282.582031 253.746094 271.046875 252.410156 267.832031 C 251.066406 264.613281 237.117188 257.636719 226.660156 252.273438 C 216.195312 246.90625 203.726562 237.652344 206.40625 234.972656 C 209.085938 232.289062 222.632812 240.46875 230.949219 244.761719 C 239.261719 249.054688 257.503906 260.320312 265.550781 260.320312 C 273.597656 260.320312 278.425781 246.371094 275.746094 243.957031 C 273.0625 241.546875 261.792969 233.230469 251.601562 227.863281 C 241.410156 222.5 222.367188 209.625 223.976562 206.675781 C 225.582031 203.722656 232.289062 205.867188 237.652344 209.089844 C 243.015625 212.304688 285.398438 238.863281 289.957031 238.59375 C 294.515625 238.324219 300.6875 233.496094 302.296875 226.257812 C 303.90625 219.011719 284.863281 203.1875 271.183594 194.070312 " fill-opacity="1" fill-rule="nonzero"/><path fill="#b7db63" d="M 87.984375 223.035156 C 87.984375 217.941406 81.277344 210.160156 77.253906 210.429688 C 73.230469 210.699219 58.75 221.160156 58.75 225.988281 C 58.75 230.816406 67.0625 239.933594 71.355469 240.738281 C 77.46875 241.886719 87.984375 228.132812 87.984375 223.035156 " fill-opacity="1" fill-rule="nonzero"/><path fill="#b7db63" d="M 113.195312 213.917969 C 109.171875 213.648438 80.035156 249.058594 80.207031 252.808594 C 80.472656 258.710938 88.789062 267.292969 93.347656 267.5625 C 97.910156 267.832031 125.269531 233.230469 125.804688 228.667969 C 126.339844 224.109375 117.222656 214.183594 113.195312 213.917969 " fill-opacity="1" fill-rule="nonzero"/><path fill="#b7db63" d="M 136.265625 239.933594 C 132.242188 239.933594 107.015625 268.160156 107.832031 273.464844 C 108.371094 276.949219 118.5625 286.875 122.855469 286.605469 C 127.144531 286.339844 146.996094 257.90625 147.261719 252.273438 C 147.53125 246.640625 140.289062 239.933594 136.265625 239.933594 " fill-opacity="1" fill-rule="nonzero"/><g clip-path="url(#39a6d6cc3d)"><path fill="#b7db63" d="M 159.601562 264.074219 C 154.503906 263.804688 136.042969 284.167969 136.265625 289.554688 C 136.535156 295.992188 145.382812 302.429688 150.480469 301.894531 C 155.578125 301.359375 168.988281 281.777344 169.523438 276.949219 C 170.0625 272.121094 164.695312 264.34375 159.601562 264.074219 " fill-opacity="1" fill-rule="nonzero"/></g><path fill="#b7db63" d="M 267.964844 110.382812 C 262.332031 110.113281 253.480469 109.84375 230.949219 105.015625 C 208.417969 100.1875 189.105469 101.261719 168.988281 101.261719 C 148.871094 101.261719 136.535156 125.402344 129.292969 134.253906 C 122.046875 143.105469 115.929688 157.84375 118.832031 160.539062 C 122.585938 164.027344 126.339844 164.828125 137.339844 160.804688 C 148.335938 156.78125 167.378906 132.640625 177.035156 130.765625 C 186.691406 128.886719 196.082031 133.449219 205.46875 139.886719 C 214.855469 146.324219 223.4375 151.953125 252.140625 169.65625 C 280.839844 187.359375 298.542969 209.625 302.296875 209.890625 C 306.054688 210.160156 324.558594 185.75 324.558594 185.75 L 280.839844 109.574219 C 280.839844 109.578125 273.597656 110.648438 267.964844 110.382812 " fill-opacity="1" fill-rule="nonzero"/><g clip-path="url(#8cd2dde6e1)"><path fill="#b7db63" d="M 313.5625 73.097656 L 281.910156 92.410156 L 343.605469 193.261719 L 371.765625 175.828125 L 313.5625 73.097656 " fill-opacity="1" fill-rule="nonzero"/></g><g fill="#ffffff" fill-opacity="1"><g transform="translate(80.61539, 333.849969)"><g><path d="M 2.859375 -1.859375 L 2.953125 -1.6875 C 2.859375 -1.300781 2.738281 -0.890625 2.59375 -0.453125 C 2.457031 -0.0234375 2.300781 0.40625 2.125 0.84375 C 1.957031 1.28125 1.789062 1.6875 1.625 2.0625 L 0.65625 2.0625 C 0.757812 1.644531 0.863281 1.207031 0.96875 0.75 C 1.070312 0.289062 1.164062 -0.160156 1.25 -0.609375 C 1.34375 -1.066406 1.414062 -1.484375 1.46875 -1.859375 Z M 2.859375 -1.859375 "/></g></g></g></svg>