<svg xmlns="http://www.w3.org/2000/svg" xmlns:xlink="http://www.w3.org/1999/xlink" width="500" zoomAndPan="magnify" viewBox="0 0 375 374.999991" height="500" preserveAspectRatio="xMidYMid meet" version="1.0"><defs><g/><clipPath id="8852901a04"><path d="M 93 316 L 121 316 L 121 341.863281 L 93 341.863281 Z M 93 316 " clip-rule="nonzero"/></clipPath><clipPath id="a7dc0aa6b8"><path d="M 74.355469 211 L 96 211 L 96 224 L 74.355469 224 Z M 74.355469 211 " clip-rule="nonzero"/></clipPath><clipPath id="73da75b494"><path d="M 254 316 L 282 316 L 282 341.863281 L 254 341.863281 Z M 254 316 " clip-rule="nonzero"/></clipPath><clipPath id="0c20950c9c"><path d="M 74.355469 231 L 300.855469 231 L 300.855469 309 L 74.355469 309 Z M 74.355469 231 " clip-rule="nonzero"/></clipPath><clipPath id="7572a65761"><path d="M 279 211 L 300.855469 211 L 300.855469 224 L 279 224 Z M 279 211 " clip-rule="nonzero"/></clipPath></defs><g clip-path="url(#8852901a04)"><path fill="#b7db63" d="M 93.75 336.625 C 93.75 339.515625 96.125 341.890625 99.015625 341.890625 L 115.257812 341.890625 C 118.210938 341.890625 120.523438 339.515625 120.523438 336.625 L 120.523438 316.847656 L 93.75 316.847656 Z M 93.75 336.625 " fill-opacity="1" fill-rule="nonzero"/></g><g clip-path="url(#a7dc0aa6b8)"><path fill="#b7db63" d="M 79.558594 223.039062 L 91.371094 223.039062 L 95.355469 211.609375 L 79.558594 211.609375 C 76.667969 211.609375 74.355469 214.175781 74.355469 217.324219 C 74.355469 218.929688 74.933594 220.339844 75.960938 221.433594 C 76.925781 222.460938 78.210938 223.039062 79.558594 223.039062 Z M 79.558594 223.039062 " fill-opacity="1" fill-rule="nonzero"/></g><g clip-path="url(#73da75b494)"><path fill="#b7db63" d="M 254.402344 336.625 C 254.402344 339.515625 256.777344 341.890625 259.667969 341.890625 L 275.914062 341.890625 C 278.800781 341.890625 281.179688 339.515625 281.179688 336.625 L 281.179688 316.847656 L 254.339844 316.847656 L 254.339844 336.625 Z M 254.402344 336.625 " fill-opacity="1" fill-rule="nonzero"/></g><g clip-path="url(#0c20950c9c)"><path fill="#b7db63" d="M 271.289062 231.511719 L 103.699219 231.511719 C 87.519531 231.511719 74.355469 245.511719 74.355469 262.65625 L 74.355469 288.082031 C 74.355469 297.972656 81.035156 306.253906 89.894531 307.988281 L 124.828125 307.988281 C 125.402344 307.988281 125.980469 308.117188 126.496094 308.308594 L 248.496094 308.308594 C 249.007812 308.050781 249.585938 307.988281 250.164062 307.988281 L 285.09375 307.988281 C 293.957031 306.253906 300.632812 297.972656 300.632812 288.082031 L 300.632812 262.65625 C 300.632812 245.511719 287.40625 231.511719 271.289062 231.511719 Z M 110.636719 287.3125 C 101.390625 287.3125 93.941406 279.542969 93.941406 269.910156 C 93.941406 260.34375 101.453125 252.511719 110.636719 252.511719 C 119.882812 252.511719 127.332031 260.28125 127.332031 269.910156 C 127.332031 279.542969 119.816406 287.3125 110.636719 287.3125 Z M 225.636719 287.3125 L 149.355469 287.3125 C 147.042969 287.3125 145.117188 285.449219 145.117188 283.074219 C 145.117188 280.761719 147.042969 278.835938 149.355469 278.835938 L 225.636719 278.835938 C 227.949219 278.835938 229.875 280.761719 229.875 283.074219 C 229.875 285.386719 227.949219 287.3125 225.636719 287.3125 Z M 225.636719 268.242188 L 149.355469 268.242188 C 147.042969 268.242188 145.117188 266.378906 145.117188 264.003906 C 145.117188 261.691406 147.042969 259.765625 149.355469 259.765625 L 225.636719 259.765625 C 227.949219 259.765625 229.875 261.691406 229.875 264.003906 C 229.875 266.378906 227.949219 268.242188 225.636719 268.242188 Z M 264.355469 287.3125 C 255.109375 287.3125 247.660156 279.542969 247.660156 269.910156 C 247.660156 260.34375 255.171875 252.511719 264.355469 252.511719 C 273.601562 252.511719 281.050781 260.28125 281.050781 269.910156 C 281.113281 279.542969 273.601562 287.3125 264.355469 287.3125 Z M 264.355469 287.3125 " fill-opacity="1" fill-rule="nonzero"/></g><path fill="#b7db63" d="M 264.355469 260.984375 C 259.796875 260.984375 256.070312 264.96875 256.070312 269.910156 C 256.070312 274.855469 259.796875 278.835938 264.355469 278.835938 C 268.914062 278.835938 272.636719 274.855469 272.636719 269.910156 C 272.636719 264.96875 268.914062 260.984375 264.355469 260.984375 Z M 264.355469 260.984375 " fill-opacity="1" fill-rule="nonzero"/><path fill="#b7db63" d="M 110.636719 260.984375 C 106.078125 260.984375 102.351562 264.96875 102.351562 269.910156 C 102.351562 274.855469 106.078125 278.835938 110.636719 278.835938 C 115.195312 278.835938 118.917969 274.855469 118.917969 269.910156 C 118.917969 264.96875 115.195312 260.984375 110.636719 260.984375 Z M 110.636719 260.984375 " fill-opacity="1" fill-rule="nonzero"/><path fill="#b7db63" d="M 158.792969 149.515625 L 158.792969 158.25 L 216.261719 158.25 L 216.261719 149.515625 C 216.261719 147.460938 214.785156 145.792969 212.988281 145.792969 L 162.132812 145.792969 C 160.269531 145.792969 158.792969 147.460938 158.792969 149.515625 Z M 158.792969 149.515625 " fill-opacity="1" fill-rule="nonzero"/><g clip-path="url(#7572a65761)"><path fill="#b7db63" d="M 295.433594 223.039062 C 296.78125 223.039062 298.066406 222.460938 299.027344 221.433594 C 300.054688 220.339844 300.632812 218.863281 300.632812 217.324219 C 300.632812 214.175781 298.324219 211.609375 295.433594 211.609375 L 279.636719 211.609375 L 283.617188 223.039062 Z M 295.433594 223.039062 " fill-opacity="1" fill-rule="nonzero"/></g><path fill="#b7db63" d="M 271.289062 223.039062 C 272.445312 223.039062 273.539062 223.101562 274.691406 223.167969 L 269.683594 208.78125 C 269.683594 208.71875 269.683594 208.71875 269.621094 208.65625 L 257.550781 174.109375 C 256.007812 169.613281 251.898438 166.597656 247.46875 166.597656 L 127.523438 166.597656 C 123.09375 166.597656 119.046875 169.613281 117.441406 174.109375 L 105.371094 208.65625 C 105.371094 208.71875 105.371094 208.71875 105.304688 208.78125 L 100.296875 223.167969 C 101.453125 223.039062 102.546875 223.039062 103.699219 223.039062 Z M 271.289062 223.039062 " fill-opacity="1" fill-rule="nonzero"/><path fill="#b7db63" d="M 196.292969 124.601562 C 198.667969 122.164062 199.824219 119.082031 200.335938 116.578125 L 174.652344 116.578125 C 175.167969 119.082031 176.324219 122.226562 178.699219 124.601562 C 181.011719 126.914062 184.027344 128.136719 187.496094 128.136719 C 190.964844 128.136719 193.980469 126.914062 196.292969 124.601562 Z M 196.292969 124.601562 " fill-opacity="1" fill-rule="nonzero"/><path fill="#b7db63" d="M 131.890625 106.816406 C 132.273438 106.816406 132.59375 106.753906 132.980469 106.6875 C 135.226562 106.046875 136.578125 103.734375 135.933594 101.488281 C 134.585938 96.542969 130.992188 79.140625 140.941406 62.320312 C 148.070312 50.183594 158.664062 44.277344 164.378906 41.835938 C 166.5 40.871094 167.527344 38.433594 166.5625 36.25 C 165.664062 34.128906 163.160156 33.101562 160.976562 34.066406 C 154.363281 36.957031 141.96875 43.828125 133.625 58.015625 C 122.320312 77.152344 125.726562 96.351562 127.714844 103.671875 C 128.359375 105.53125 130.027344 106.816406 131.890625 106.816406 Z M 131.890625 106.816406 " fill-opacity="1" fill-rule="nonzero"/><path fill="#b7db63" d="M 162.324219 52.109375 C 158.664062 53.523438 155.453125 55.832031 152.949219 58.722656 C 147.429688 65.144531 147.042969 72.785156 147.171875 75.738281 C 147.234375 78.050781 149.160156 79.785156 151.410156 79.785156 C 151.472656 79.785156 151.539062 79.785156 151.539062 79.785156 C 153.847656 79.71875 155.710938 77.730469 155.582031 75.417969 C 155.519531 73.492188 155.710938 68.484375 159.308594 64.308594 C 160.914062 62.449219 163.03125 60.972656 165.34375 60.007812 C 167.527344 59.171875 168.554688 56.667969 167.71875 54.550781 C 166.949219 52.300781 164.507812 51.273438 162.324219 52.109375 Z M 162.324219 52.109375 " fill-opacity="1" fill-rule="nonzero"/><path fill="#b7db63" d="M 191.734375 66.492188 L 191.734375 57.117188 C 191.734375 54.742188 189.808594 52.878906 187.496094 52.878906 C 185.183594 52.878906 183.257812 54.742188 183.257812 57.117188 L 183.257812 66.492188 C 183.257812 68.804688 185.183594 70.730469 187.496094 70.730469 C 189.808594 70.730469 191.734375 68.804688 191.734375 66.492188 Z M 191.734375 66.492188 " fill-opacity="1" fill-rule="nonzero"/><path fill="#b7db63" d="M 211.574219 108.101562 C 207.59375 102.257812 203.546875 93.976562 203.546875 84.40625 C 203.546875 71.695312 191.285156 70.730469 187.558594 70.730469 C 183.835938 70.730469 171.570312 71.695312 171.570312 84.40625 C 171.570312 93.910156 167.527344 102.195312 163.546875 108.101562 Z M 211.574219 108.101562 " fill-opacity="1" fill-rule="nonzero"/><path fill="#b7db63" d="M 209.582031 60.007812 C 211.960938 60.972656 214.015625 62.449219 215.621094 64.308594 C 219.214844 68.484375 219.40625 73.492188 219.34375 75.480469 C 219.28125 77.792969 221.078125 79.785156 223.390625 79.847656 C 223.453125 79.847656 223.515625 79.847656 223.515625 79.847656 C 225.765625 79.847656 227.691406 78.050781 227.753906 75.804688 C 227.882812 72.851562 227.5 65.273438 221.976562 58.789062 C 219.472656 55.898438 216.261719 53.585938 212.601562 52.175781 C 210.417969 51.339844 207.980469 52.367188 207.078125 54.550781 C 206.308594 56.667969 207.402344 59.171875 209.582031 60.007812 Z M 209.582031 60.007812 " fill-opacity="1" fill-rule="nonzero"/><path fill="#b7db63" d="M 210.546875 41.773438 C 216.261719 44.210938 226.855469 50.183594 233.984375 62.253906 C 243.9375 79.078125 240.339844 96.480469 238.992188 101.421875 C 238.351562 103.671875 239.699219 105.980469 241.945312 106.625 C 242.332031 106.6875 242.652344 106.753906 243.039062 106.753906 C 244.898438 106.753906 246.632812 105.53125 247.148438 103.605469 C 249.136719 96.222656 252.539062 77.085938 241.238281 57.953125 C 232.890625 43.761719 220.5 36.828125 213.886719 34.003906 C 211.765625 33.101562 209.261719 34.066406 208.300781 36.183594 C 207.402344 38.367188 208.429688 40.871094 210.546875 41.773438 Z M 210.546875 41.773438 " fill-opacity="1" fill-rule="nonzero"/><g fill="#ffffff" fill-opacity="1"><g transform="translate(333.749983, 43.124997)"><g><path d="M 2.859375 -1.859375 L 2.953125 -1.6875 C 2.859375 -1.300781 2.738281 -0.890625 2.59375 -0.453125 C 2.457031 -0.0234375 2.300781 0.40625 2.125 0.84375 C 1.957031 1.28125 1.789062 1.6875 1.625 2.0625 L 0.65625 2.0625 C 0.757812 1.644531 0.863281 1.207031 0.96875 0.75 C 1.070312 0.289062 1.164062 -0.160156 1.25 -0.609375 C 1.34375 -1.066406 1.414062 -1.484375 1.46875 -1.859375 Z M 2.859375 -1.859375 "/></g></g></g></svg>