<svg xmlns="http://www.w3.org/2000/svg" xmlns:xlink="http://www.w3.org/1999/xlink" width="500" zoomAndPan="magnify" viewBox="0 0 375 374.999991" height="500" preserveAspectRatio="xMidYMid meet" version="1.0"><defs><g/><clipPath id="bda39ee726"><path d="M 17.660156 94.511719 L 357.410156 94.511719 L 357.410156 280.511719 L 17.660156 280.511719 Z M 17.660156 94.511719 " clip-rule="nonzero"/></clipPath></defs><g clip-path="url(#bda39ee726)"><path fill="#b7db63" d="M 132.929688 280.328125 C 130.863281 280.328125 129.914062 278.945312 130.808594 277.238281 C 131.703125 275.535156 134.105469 274.152344 136.171875 274.152344 L 151.140625 274.152344 C 153.207031 274.152344 154.15625 275.535156 153.261719 277.238281 C 152.367188 278.945312 149.964844 280.328125 147.898438 280.328125 Z M 102.992188 280.328125 C 100.925781 280.328125 99.976562 278.945312 100.871094 277.238281 C 101.765625 275.535156 104.167969 274.152344 106.234375 274.152344 L 121.203125 274.152344 C 123.269531 274.152344 124.21875 275.535156 123.324219 277.238281 C 122.429688 278.945312 120.027344 280.328125 117.960938 280.328125 Z M 73.054688 280.328125 C 70.988281 280.328125 70.039062 278.945312 70.933594 277.238281 C 71.828125 275.535156 74.230469 274.152344 76.296875 274.152344 L 91.265625 274.152344 C 93.332031 274.152344 94.28125 275.535156 93.386719 277.238281 C 92.492188 278.945312 90.089844 280.328125 88.023438 280.328125 Z M 162.867188 280.328125 C 160.800781 280.328125 159.851562 278.945312 160.746094 277.238281 C 161.640625 275.535156 164.042969 274.152344 166.109375 274.152344 L 181.078125 274.152344 C 183.144531 274.152344 184.09375 275.535156 183.199219 277.238281 C 182.304688 278.945312 179.902344 280.328125 177.835938 280.328125 Z M 194 279.535156 C 191.789062 279.914062 190.328125 278.871094 190.746094 277.207031 C 191.160156 275.546875 193.289062 273.890625 195.503906 273.511719 C 200.3125 272.691406 205.242188 271.09375 209.964844 268.84375 C 212.148438 267.800781 214.367188 268.054688 214.917969 269.40625 C 215.46875 270.757812 214.144531 272.699219 211.960938 273.738281 C 206.097656 276.53125 199.976562 278.515625 194 279.535156 Z M 228.078125 263.3125 C 226.324219 264.820312 223.757812 265.398438 222.34375 264.605469 C 220.933594 263.808594 221.210938 261.941406 222.96875 260.433594 C 226.746094 257.183594 229.835938 253.597656 232.03125 249.867188 C 233.035156 248.164062 235.484375 246.855469 237.5 246.945312 C 239.515625 247.035156 240.339844 248.488281 239.335938 250.191406 C 236.609375 254.820312 232.769531 259.277344 228.078125 263.3125 Z M 243.742188 236.546875 C 243.6875 238.128906 241.820312 239.929688 239.566406 240.570312 C 237.316406 241.210938 235.535156 240.449219 235.585938 238.867188 C 235.703125 235.441406 234.757812 232.355469 232.828125 229.820312 C 231.9375 228.652344 232.894531 226.695312 234.964844 225.453125 C 237.03125 224.214844 239.429688 224.15625 240.320312 225.324219 C 242.710938 228.46875 243.886719 232.296875 243.742188 236.546875 Z M 229.835938 218.308594 C 231.507812 218.851562 231.644531 220.605469 230.136719 222.222656 C 228.632812 223.839844 226.054688 224.710938 224.378906 224.167969 C 221.707031 223.300781 218.65625 222.847656 215.304688 222.839844 L 211.316406 222.839844 C 209.25 222.839844 208.300781 221.457031 209.195312 219.75 C 210.089844 218.042969 212.492188 216.660156 214.558594 216.660156 L 218.5625 216.660156 C 222.726562 216.675781 226.515625 217.234375 229.835938 218.308594 Z M 199.699219 216.652344 C 201.738281 216.699219 202.621094 218.117188 201.671875 219.824219 C 200.71875 221.53125 198.292969 222.875 196.25 222.828125 C 190.6875 222.699219 185.847656 221.554688 181.988281 219.496094 C 180.546875 218.730469 180.78125 216.871094 182.511719 215.347656 C 184.238281 213.824219 186.8125 213.214844 188.253906 213.980469 C 191.347656 215.632812 195.226562 216.550781 199.699219 216.652344 Z M 181.636719 207.046875 C 182.207031 208.386719 180.90625 210.328125 178.730469 211.382812 C 176.550781 212.4375 174.320312 212.207031 173.746094 210.863281 C 172.203125 207.257812 171.960938 203.070312 173.066406 198.574219 C 173.472656 196.914062 175.601562 195.253906 177.816406 194.871094 C 180.03125 194.488281 181.496094 195.527344 181.085938 197.1875 C 180.199219 200.792969 180.398438 204.152344 181.636719 207.046875 Z M 186.859375 186.078125 C 185.539062 187.746094 182.988281 188.796875 181.164062 188.429688 C 179.339844 188.0625 178.929688 186.414062 180.25 184.746094 C 183.820312 180.242188 188.425781 176.035156 193.726562 172.40625 C 195.699219 171.054688 198.179688 170.804688 199.269531 171.847656 C 200.359375 172.890625 199.640625 174.828125 197.671875 176.179688 C 193.414062 179.09375 189.71875 182.464844 186.859375 186.078125 Z M 211.570312 169.15625 C 209.324219 169.9375 207.382812 169.339844 207.230469 167.820312 C 207.082031 166.304688 208.785156 164.441406 211.03125 163.664062 C 217.046875 161.574219 223.097656 160.394531 228.8125 160.230469 C 230.910156 160.167969 231.941406 161.503906 231.121094 163.207031 C 230.296875 164.914062 227.933594 166.34375 225.835938 166.402344 C 221.246094 166.535156 216.398438 167.480469 211.570312 169.15625 Z M 240.878906 166.386719 C 238.8125 166.386719 237.863281 165.003906 238.757812 163.296875 C 239.652344 161.59375 242.054688 160.210938 244.121094 160.210938 L 259.089844 160.210938 C 261.15625 160.210938 262.105469 161.59375 261.210938 163.296875 C 260.316406 165.003906 257.914062 166.386719 255.847656 166.386719 Z M 272.136719 164.339844 C 269.90625 164.78125 268.367188 163.804688 268.699219 162.15625 C 269.027344 160.507812 271.101562 158.816406 273.332031 158.375 L 282.839844 156.488281 C 285.066406 156.046875 286.605469 157.023438 286.277344 158.671875 C 285.945312 160.320312 283.871094 162.015625 281.644531 162.457031 Z M 58.808594 169.980469 C 81.539062 169.980469 99.964844 188.40625 99.972656 211.132812 C 99.972656 226.421875 92.539062 242.027344 80.21875 257.21875 C 75.953125 262.476562 71.390625 267.308594 66.828125 271.621094 C 65.230469 273.128906 63.742188 274.46875 62.402344 275.621094 C 61.933594 276.027344 61.511719 276.382812 61.148438 276.683594 C 60.925781 276.867188 60.765625 276.996094 60.679688 277.066406 L 58.808594 278.5625 L 56.9375 277.066406 C 56.851562 276.996094 56.691406 276.867188 56.46875 276.683594 C 56.105469 276.382812 55.683594 276.027344 55.214844 275.621094 C 53.875 274.46875 52.386719 273.128906 50.789062 271.621094 C 46.226562 267.308594 41.664062 262.476562 37.398438 257.21875 C 25.078125 242.027344 17.644531 226.421875 17.644531 211.132812 C 17.644531 188.40625 36.074219 169.980469 58.808594 169.980469 Z M 59.058594 230.09375 C 69.375 230.09375 77.761719 221.710938 77.769531 211.382812 C 77.769531 201.0625 69.375 192.683594 59.058594 192.683594 C 48.734375 192.683594 40.347656 201.0625 40.347656 211.382812 C 40.347656 221.710938 48.734375 230.09375 59.058594 230.09375 Z M 357.3125 121.28125 C 357.3125 123.695312 355.59375 125.566406 353.476562 125.460938 L 352.535156 125.417969 C 352.535156 125.421875 352.539062 125.425781 352.539062 125.433594 C 353.050781 126.96875 353.335938 128.632812 353.335938 130.359375 L 353.335938 135.484375 C 353.335938 140.492188 352.117188 144.757812 349.363281 146.730469 L 349.363281 152.355469 C 349.363281 155.183594 347.347656 157.375 344.871094 157.25 L 340.757812 157.046875 C 338.28125 156.925781 336.265625 154.53125 336.265625 151.710938 L 336.265625 147.441406 L 299.78125 145.640625 L 299.78125 149.90625 C 299.78125 152.734375 297.769531 154.925781 295.289062 154.804688 L 291.171875 154.597656 C 288.691406 154.476562 286.679688 152.082031 286.679688 149.261719 L 286.679688 143.632812 C 283.929688 141.390625 282.710938 137.007812 282.710938 131.996094 L 282.710938 126.871094 C 282.710938 125.148438 282.992188 123.511719 283.496094 122.03125 C 283.496094 122.023438 283.503906 122.019531 283.503906 122.007812 L 282.5625 121.960938 C 280.441406 121.855469 278.726562 119.8125 278.726562 117.402344 C 278.726562 114.984375 280.441406 113.109375 282.5625 113.214844 L 286.300781 113.398438 C 286.4375 113.40625 286.5625 113.445312 286.691406 113.464844 L 291.5625 101.246094 C 293.101562 97.386719 296.816406 94.601562 300.195312 94.769531 L 305.566406 95.035156 L 330.46875 96.265625 L 335.839844 96.53125 C 339.167969 96.695312 342.964844 99.914062 344.472656 103.855469 L 349.347656 116.558594 C 349.476562 116.550781 349.597656 116.527344 349.734375 116.53125 L 353.476562 116.71875 C 355.59375 116.820312 357.3125 118.859375 357.3125 121.28125 Z M 357.3125 121.28125 " fill-opacity="1" fill-rule="evenodd"/></g><g fill="#ffffff" fill-opacity="1"><g transform="translate(333.749983, 43.124997)"><g><path d="M 2.859375 -1.859375 L 2.953125 -1.6875 C 2.859375 -1.300781 2.738281 -0.890625 2.59375 -0.453125 C 2.457031 -0.0234375 2.300781 0.40625 2.125 0.84375 C 1.957031 1.28125 1.789062 1.6875 1.625 2.0625 L 0.65625 2.0625 C 0.757812 1.644531 0.863281 1.207031 0.96875 0.75 C 1.070312 0.289062 1.164062 -0.160156 1.25 -0.609375 C 1.34375 -1.066406 1.414062 -1.484375 1.46875 -1.859375 Z M 2.859375 -1.859375 "/></g></g></g></svg>