<svg xmlns="http://www.w3.org/2000/svg" xmlns:xlink="http://www.w3.org/1999/xlink" width="500" zoomAndPan="magnify" viewBox="0 0 375 374.999991" height="500" preserveAspectRatio="xMidYMid meet" version="1.0"><defs><g/></defs><path fill="#f3f3f3" d="M 342.453125 195.210938 L 328.195312 195.210938 L 328.195312 341.402344 C 328.136719 342.386719 327.980469 343.359375 327.726562 344.3125 C 327.476562 345.269531 327.136719 346.191406 326.707031 347.078125 C 326.273438 347.96875 325.761719 348.804688 325.164062 349.59375 C 324.570312 350.382812 323.90625 351.105469 323.167969 351.761719 C 322.433594 352.421875 321.640625 353 320.789062 353.503906 C 319.9375 354.007812 319.046875 354.421875 318.117188 354.75 C 317.1875 355.078125 316.230469 355.316406 315.253906 355.457031 C 314.277344 355.601562 313.296875 355.644531 312.308594 355.597656 L 228.089844 355.597656 L 228.089844 255.917969 C 228.089844 255.234375 228.023438 254.558594 227.886719 253.886719 C 227.753906 253.214844 227.558594 252.566406 227.296875 251.933594 C 227.035156 251.300781 226.714844 250.703125 226.335938 250.132812 C 225.953125 249.566406 225.523438 249.039062 225.039062 248.554688 C 224.558594 248.070312 224.03125 247.640625 223.460938 247.257812 C 222.894531 246.878906 222.292969 246.558594 221.664062 246.296875 C 221.03125 246.035156 220.378906 245.835938 219.710938 245.703125 C 219.039062 245.570312 218.363281 245.503906 217.679688 245.503906 L 156.574219 245.503906 C 155.890625 245.503906 155.214844 245.570312 154.542969 245.703125 C 153.871094 245.835938 153.222656 246.035156 152.589844 246.296875 C 151.957031 246.558594 151.359375 246.878906 150.789062 247.257812 C 150.222656 247.636719 149.695312 248.070312 149.210938 248.554688 C 148.730469 249.035156 148.296875 249.5625 147.917969 250.132812 C 147.539062 250.699219 147.21875 251.300781 146.957031 251.933594 C 146.695312 252.5625 146.496094 253.214844 146.363281 253.886719 C 146.230469 254.558594 146.164062 255.234375 146.164062 255.917969 L 146.164062 355.589844 L 61.9375 355.589844 C 60.957031 355.640625 59.976562 355.597656 59.003906 355.457031 C 58.027344 355.320312 57.078125 355.085938 56.148438 354.757812 C 55.21875 354.433594 54.332031 354.019531 53.484375 353.519531 C 52.636719 353.019531 51.84375 352.441406 51.109375 351.785156 C 50.375 351.128906 49.714844 350.40625 49.121094 349.621094 C 48.527344 348.835938 48.015625 348 47.589844 347.113281 C 47.160156 346.226562 46.820312 345.308594 46.574219 344.355469 C 46.324219 343.402344 46.171875 342.433594 46.113281 341.453125 L 46.113281 195.210938 L 31.792969 195.210938 C 15.925781 195.210938 7.328125 180.269531 17.722656 170.683594 L 174.421875 25.816406 C 175.402344 24.988281 176.449219 24.25 177.558594 23.605469 C 178.671875 22.960938 179.828125 22.417969 181.035156 21.976562 C 182.242188 21.535156 183.476562 21.203125 184.742188 20.980469 C 186.007812 20.757812 187.28125 20.648438 188.566406 20.652344 C 189.851562 20.652344 191.125 20.769531 192.390625 20.996094 C 193.652344 21.222656 194.886719 21.5625 196.089844 22.007812 C 197.296875 22.453125 198.453125 23 199.5625 23.648438 C 200.667969 24.296875 201.710938 25.039062 202.6875 25.875 C 253.988281 74.160156 305.308594 122.445312 356.652344 170.730469 C 366.859375 180.414062 358.265625 195.210938 342.453125 195.210938 Z M 342.453125 195.210938 " fill-opacity="1" fill-rule="nonzero"/><g fill="#ffffff" fill-opacity="1"><g transform="translate(333.749983, 43.124997)"><g><path d="M 2.859375 -1.859375 L 2.953125 -1.6875 C 2.859375 -1.300781 2.738281 -0.890625 2.59375 -0.453125 C 2.457031 -0.0234375 2.300781 0.40625 2.125 0.84375 C 1.957031 1.28125 1.789062 1.6875 1.625 2.0625 L 0.65625 2.0625 C 0.757812 1.644531 0.863281 1.207031 0.96875 0.75 C 1.070312 0.289062 1.164062 -0.160156 1.25 -0.609375 C 1.34375 -1.066406 1.414062 -1.484375 1.46875 -1.859375 Z M 2.859375 -1.859375 "/></g></g></g></svg>