<svg xmlns="http://www.w3.org/2000/svg" xmlns:xlink="http://www.w3.org/1999/xlink" width="500" zoomAndPan="magnify" viewBox="0 0 375 374.999991" height="500" preserveAspectRatio="xMidYMid meet" version="1.0"><defs><g/><clipPath id="546540054d"><path d="M 15.851562 15.851562 L 359.351562 15.851562 L 359.351562 359.351562 L 15.851562 359.351562 Z M 15.851562 15.851562 " clip-rule="nonzero"/></clipPath><clipPath id="72fe0533c1"><rect x="0" width="6" y="0" height="11"/></clipPath></defs><g clip-path="url(#546540054d)"><path fill="#b7db63" d="M 187.496094 15.851562 C 184.6875 15.851562 181.882812 15.921875 179.074219 16.058594 C 176.269531 16.199219 173.46875 16.40625 170.671875 16.679688 C 167.878906 16.957031 165.089844 17.300781 162.3125 17.710938 C 159.535156 18.125 156.765625 18.601562 154.011719 19.152344 C 151.257812 19.699219 148.515625 20.316406 145.792969 20.996094 C 143.066406 21.679688 140.359375 22.429688 137.671875 23.246094 C 134.984375 24.058594 132.316406 24.941406 129.671875 25.886719 C 127.027344 26.832031 124.40625 27.84375 121.8125 28.917969 C 119.21875 29.992188 116.648438 31.132812 114.109375 32.332031 C 111.570312 33.535156 109.0625 34.796875 106.585938 36.121094 C 104.109375 37.445312 101.664062 38.828125 99.253906 40.273438 C 96.84375 41.71875 94.472656 43.21875 92.136719 44.78125 C 89.800781 46.339844 87.503906 47.957031 85.25 49.632812 C 82.992188 51.304688 80.777344 53.03125 78.609375 54.816406 C 76.4375 56.597656 74.308594 58.429688 72.226562 60.316406 C 70.148438 62.203125 68.113281 64.140625 66.125 66.125 C 64.140625 68.113281 62.203125 70.148438 60.316406 72.226562 C 58.429688 74.308594 56.597656 76.4375 54.816406 78.609375 C 53.03125 80.777344 51.304688 82.992188 49.632812 85.25 C 47.957031 87.503906 46.339844 89.800781 44.78125 92.136719 C 43.21875 94.472656 41.71875 96.84375 40.273438 99.253906 C 38.828125 101.664062 37.445312 104.109375 36.121094 106.585938 C 34.796875 109.0625 33.535156 111.570312 32.332031 114.109375 C 31.132812 116.648438 29.992188 119.21875 28.917969 121.8125 C 27.84375 124.40625 26.832031 127.027344 25.886719 129.671875 C 24.941406 132.316406 24.058594 134.984375 23.246094 137.671875 C 22.429688 140.359375 21.679688 143.066406 20.996094 145.792969 C 20.316406 148.515625 19.699219 151.257812 19.152344 154.011719 C 18.601562 156.765625 18.125 159.535156 17.710938 162.3125 C 17.300781 165.089844 16.957031 167.878906 16.679688 170.671875 C 16.40625 173.46875 16.199219 176.269531 16.058594 179.074219 C 15.921875 181.882812 15.851562 184.6875 15.851562 187.496094 C 15.851562 190.308594 15.921875 193.113281 16.058594 195.921875 C 16.199219 198.726562 16.40625 201.527344 16.679688 204.320312 C 16.957031 207.117188 17.300781 209.90625 17.710938 212.683594 C 18.125 215.460938 18.601562 218.230469 19.152344 220.984375 C 19.699219 223.738281 20.316406 226.480469 20.996094 229.203125 C 21.679688 231.929688 22.429688 234.636719 23.246094 237.324219 C 24.058594 240.011719 24.941406 242.679688 25.886719 245.324219 C 26.832031 247.96875 27.84375 250.589844 28.917969 253.183594 C 29.992188 255.777344 31.132812 258.347656 32.332031 260.886719 C 33.535156 263.425781 34.796875 265.933594 36.121094 268.410156 C 37.445312 270.886719 38.828125 273.332031 40.273438 275.742188 C 41.71875 278.148438 43.21875 280.523438 44.78125 282.859375 C 46.339844 285.195312 47.957031 287.488281 49.632812 289.746094 C 51.304688 292.003906 53.03125 294.214844 54.816406 296.386719 C 56.597656 298.558594 58.429688 300.6875 60.316406 302.765625 C 62.203125 304.847656 64.140625 306.882812 66.125 308.867188 C 68.113281 310.855469 70.148438 312.792969 72.226562 314.679688 C 74.308594 316.5625 76.4375 318.398438 78.609375 320.179688 C 80.777344 321.960938 82.992188 323.691406 85.25 325.363281 C 87.503906 327.039062 89.800781 328.652344 92.136719 330.214844 C 94.472656 331.777344 96.84375 333.277344 99.253906 334.722656 C 101.664062 336.167969 104.109375 337.550781 106.585938 338.875 C 109.0625 340.199219 111.570312 341.460938 114.109375 342.664062 C 116.648438 343.863281 119.21875 345 121.8125 346.078125 C 124.40625 347.152344 127.027344 348.164062 129.671875 349.109375 C 132.316406 350.054688 134.984375 350.9375 137.671875 351.75 C 140.359375 352.566406 143.066406 353.316406 145.792969 354 C 148.515625 354.679688 151.257812 355.296875 154.011719 355.84375 C 156.765625 356.390625 159.535156 356.871094 162.3125 357.285156 C 165.089844 357.695312 167.878906 358.039062 170.671875 358.316406 C 173.46875 358.589844 176.269531 358.796875 179.074219 358.933594 C 181.882812 359.074219 184.6875 359.140625 187.496094 359.140625 C 190.308594 359.140625 193.113281 359.074219 195.921875 358.933594 C 198.726562 358.796875 201.527344 358.589844 204.320312 358.316406 C 207.117188 358.039062 209.90625 357.695312 212.683594 357.285156 C 215.460938 356.871094 218.230469 356.390625 220.984375 355.84375 C 223.738281 355.296875 226.480469 354.679688 229.203125 354 C 231.929688 353.316406 234.636719 352.566406 237.324219 351.75 C 240.011719 350.9375 242.679688 350.054688 245.324219 349.109375 C 247.96875 348.164062 250.589844 347.152344 253.183594 346.078125 C 255.777344 345 258.347656 343.863281 260.886719 342.664062 C 263.425781 341.460938 265.933594 340.199219 268.410156 338.875 C 270.886719 337.550781 273.332031 336.167969 275.742188 334.722656 C 278.148438 333.277344 280.523438 331.777344 282.859375 330.214844 C 285.195312 328.652344 287.488281 327.039062 289.746094 325.363281 C 292.003906 323.691406 294.214844 321.960938 296.386719 320.179688 C 298.558594 318.398438 300.6875 316.5625 302.765625 314.679688 C 304.847656 312.792969 306.882812 310.855469 308.867188 308.867188 C 310.855469 306.882812 312.792969 304.847656 314.679688 302.765625 C 316.5625 300.6875 318.398438 298.558594 320.179688 296.386719 C 321.960938 294.214844 323.691406 292.003906 325.363281 289.746094 C 327.039062 287.488281 328.652344 285.195312 330.214844 282.859375 C 331.777344 280.523438 333.277344 278.148438 334.722656 275.742188 C 336.167969 273.332031 337.550781 270.886719 338.875 268.410156 C 340.199219 265.933594 341.460938 263.425781 342.664062 260.886719 C 343.863281 258.347656 345 255.777344 346.078125 253.183594 C 347.152344 250.589844 348.164062 247.96875 349.109375 245.324219 C 350.054688 242.679688 350.9375 240.011719 351.75 237.324219 C 352.566406 234.636719 353.316406 231.929688 354 229.203125 C 354.679688 226.480469 355.296875 223.738281 355.84375 220.984375 C 356.390625 218.230469 356.871094 215.460938 357.285156 212.683594 C 357.695312 209.90625 358.039062 207.117188 358.316406 204.320312 C 358.589844 201.527344 358.796875 198.726562 358.933594 195.921875 C 359.074219 193.113281 359.140625 190.308594 359.140625 187.496094 C 359.140625 184.6875 359.074219 181.882812 358.933594 179.074219 C 358.796875 176.269531 358.589844 173.46875 358.316406 170.671875 C 358.039062 167.878906 357.695312 165.089844 357.285156 162.3125 C 356.871094 159.535156 356.390625 156.765625 355.84375 154.011719 C 355.296875 151.257812 354.679688 148.515625 354 145.792969 C 353.316406 143.066406 352.566406 140.359375 351.75 137.671875 C 350.9375 134.984375 350.054688 132.316406 349.109375 129.671875 C 348.164062 127.027344 347.152344 124.40625 346.078125 121.8125 C 345 119.21875 343.863281 116.648438 342.664062 114.109375 C 341.460938 111.570312 340.199219 109.0625 338.875 106.585938 C 337.550781 104.109375 336.167969 101.664062 334.722656 99.253906 C 333.277344 96.84375 331.777344 94.472656 330.214844 92.136719 C 328.652344 89.800781 327.039062 87.503906 325.363281 85.25 C 323.691406 82.992188 321.960938 80.777344 320.179688 78.609375 C 318.398438 76.4375 316.5625 74.308594 314.679688 72.226562 C 312.792969 70.148438 310.855469 68.113281 308.867188 66.125 C 306.882812 64.140625 304.847656 62.203125 302.765625 60.316406 C 300.6875 58.429688 298.558594 56.597656 296.386719 54.816406 C 294.214844 53.03125 292.003906 51.304688 289.746094 49.632812 C 287.488281 47.957031 285.195312 46.339844 282.859375 44.78125 C 280.523438 43.21875 278.148438 41.71875 275.742188 40.273438 C 273.332031 38.828125 270.886719 37.445312 268.410156 36.121094 C 265.933594 34.796875 263.425781 33.535156 260.886719 32.332031 C 258.347656 31.132812 255.777344 29.992188 253.183594 28.917969 C 250.589844 27.84375 247.96875 26.832031 245.324219 25.886719 C 242.679688 24.941406 240.011719 24.058594 237.324219 23.246094 C 234.636719 22.429688 231.929688 21.679688 229.203125 20.996094 C 226.480469 20.316406 223.738281 19.699219 220.984375 19.152344 C 218.230469 18.601562 215.460938 18.125 212.683594 17.710938 C 209.90625 17.300781 207.117188 16.957031 204.320312 16.679688 C 201.527344 16.40625 198.726562 16.199219 195.921875 16.058594 C 193.113281 15.921875 190.308594 15.851562 187.496094 15.851562 Z M 187.496094 336.996094 C 185.050781 336.996094 182.605469 336.933594 180.164062 336.816406 C 177.71875 336.695312 175.28125 336.515625 172.84375 336.273438 C 170.410156 336.035156 167.980469 335.734375 165.5625 335.375 C 163.140625 335.015625 160.730469 334.597656 158.332031 334.121094 C 155.933594 333.644531 153.546875 333.109375 151.171875 332.515625 C 148.800781 331.917969 146.441406 331.265625 144.101562 330.558594 C 141.761719 329.847656 139.4375 329.078125 137.132812 328.253906 C 134.832031 327.429688 132.546875 326.550781 130.289062 325.613281 C 128.027344 324.679688 125.792969 323.6875 123.578125 322.640625 C 121.367188 321.59375 119.183594 320.496094 117.027344 319.34375 C 114.867188 318.1875 112.738281 316.984375 110.640625 315.726562 C 108.542969 314.46875 106.476562 313.160156 104.441406 311.800781 C 102.40625 310.441406 100.40625 309.03125 98.441406 307.574219 C 96.476562 306.117188 94.550781 304.613281 92.65625 303.058594 C 90.765625 301.507812 88.914062 299.910156 87.101562 298.265625 C 85.289062 296.625 83.515625 294.9375 81.789062 293.207031 C 80.058594 291.476562 78.371094 289.707031 76.726562 287.894531 C 75.085938 286.082031 73.488281 284.230469 71.933594 282.335938 C 70.382812 280.445312 68.878906 278.519531 67.421875 276.554688 C 65.964844 274.585938 64.554688 272.589844 63.195312 270.554688 C 61.835938 268.519531 60.527344 266.453125 59.269531 264.355469 C 58.011719 262.257812 56.804688 260.128906 55.652344 257.96875 C 54.5 255.8125 53.398438 253.628906 52.355469 251.414062 C 51.308594 249.203125 50.316406 246.96875 49.378906 244.707031 C 48.445312 242.449219 47.5625 240.164062 46.738281 237.863281 C 45.914062 235.558594 45.148438 233.234375 44.4375 230.894531 C 43.726562 228.554688 43.074219 226.195312 42.480469 223.824219 C 41.886719 221.449219 41.351562 219.0625 40.875 216.664062 C 40.394531 214.261719 39.976562 211.855469 39.617188 209.433594 C 39.261719 207.011719 38.960938 204.585938 38.722656 202.152344 C 38.480469 199.714844 38.300781 197.277344 38.179688 194.832031 C 38.0625 192.390625 38 189.945312 38 187.496094 C 38 185.050781 38.0625 182.605469 38.179688 180.164062 C 38.300781 177.71875 38.480469 175.28125 38.722656 172.84375 C 38.960938 170.410156 39.261719 167.980469 39.617188 165.5625 C 39.976562 163.140625 40.394531 160.730469 40.875 158.332031 C 41.351562 155.933594 41.886719 153.546875 42.480469 151.171875 C 43.074219 148.800781 43.726562 146.441406 44.4375 144.101562 C 45.148438 141.761719 45.914062 139.4375 46.738281 137.132812 C 47.5625 134.832031 48.445312 132.546875 49.378906 130.289062 C 50.316406 128.027344 51.308594 125.792969 52.355469 123.578125 C 53.398438 121.367188 54.5 119.183594 55.652344 117.027344 C 56.804688 114.867188 58.011719 112.738281 59.269531 110.640625 C 60.527344 108.542969 61.835938 106.476562 63.195312 104.441406 C 64.554688 102.40625 65.964844 100.40625 67.421875 98.441406 C 68.878906 96.476562 70.382812 94.550781 71.933594 92.65625 C 73.488281 90.765625 75.085938 88.914062 76.726562 87.101562 C 78.371094 85.289062 80.058594 83.515625 81.789062 81.789062 C 83.515625 80.058594 85.289062 78.371094 87.101562 76.726562 C 88.914062 75.085938 90.765625 73.488281 92.65625 71.933594 C 94.550781 70.382812 96.476562 68.878906 98.441406 67.421875 C 100.40625 65.964844 102.40625 64.554688 104.441406 63.195312 C 106.476562 61.835938 108.542969 60.527344 110.640625 59.269531 C 112.738281 58.011719 114.867188 56.804688 117.027344 55.652344 C 119.183594 54.5 121.367188 53.398438 123.578125 52.355469 C 125.792969 51.308594 128.027344 50.316406 130.289062 49.378906 C 132.546875 48.445312 134.832031 47.5625 137.132812 46.738281 C 139.4375 45.914062 141.761719 45.148438 144.101562 44.4375 C 146.441406 43.726562 148.800781 43.074219 151.171875 42.480469 C 153.546875 41.886719 155.933594 41.351562 158.332031 40.875 C 160.730469 40.394531 163.140625 39.976562 165.5625 39.617188 C 167.980469 39.261719 170.410156 38.960938 172.84375 38.722656 C 175.28125 38.480469 177.71875 38.300781 180.164062 38.179688 C 182.605469 38.0625 185.050781 38 187.496094 38 C 189.945312 38 192.390625 38.0625 194.832031 38.179688 C 197.277344 38.300781 199.714844 38.480469 202.152344 38.722656 C 204.585938 38.960938 207.011719 39.261719 209.433594 39.617188 C 211.855469 39.976562 214.261719 40.394531 216.664062 40.875 C 219.0625 41.351562 221.449219 41.886719 223.824219 42.480469 C 226.195312 43.074219 228.554688 43.726562 230.894531 44.4375 C 233.234375 45.148438 235.558594 45.914062 237.863281 46.738281 C 240.164062 47.5625 242.449219 48.445312 244.707031 49.378906 C 246.96875 50.316406 249.203125 51.308594 251.414062 52.355469 C 253.628906 53.398438 255.8125 54.5 257.96875 55.652344 C 260.128906 56.804688 262.257812 58.011719 264.355469 59.269531 C 266.453125 60.527344 268.519531 61.835938 270.554688 63.195312 C 272.589844 64.554688 274.585938 65.964844 276.554688 67.421875 C 278.519531 68.878906 280.445312 70.382812 282.335938 71.933594 C 284.230469 73.488281 286.082031 75.085938 287.894531 76.726562 C 289.707031 78.371094 291.476562 80.058594 293.207031 81.789062 C 294.9375 83.515625 296.625 85.289062 298.265625 87.101562 C 299.910156 88.914062 301.507812 90.765625 303.058594 92.65625 C 304.613281 94.550781 306.117188 96.476562 307.574219 98.441406 C 309.03125 100.40625 310.441406 102.40625 311.800781 104.441406 C 313.160156 106.476562 314.46875 108.542969 315.726562 110.640625 C 316.984375 112.738281 318.1875 114.867188 319.34375 117.027344 C 320.496094 119.183594 321.59375 121.367188 322.640625 123.578125 C 323.6875 125.792969 324.679688 128.027344 325.613281 130.289062 C 326.550781 132.546875 327.429688 134.832031 328.253906 137.132812 C 329.078125 139.4375 329.847656 141.761719 330.558594 144.101562 C 331.265625 146.441406 331.917969 148.800781 332.515625 151.171875 C 333.109375 153.546875 333.644531 155.933594 334.121094 158.332031 C 334.597656 160.730469 335.015625 163.140625 335.375 165.5625 C 335.734375 167.980469 336.035156 170.410156 336.273438 172.84375 C 336.515625 175.28125 336.695312 177.71875 336.816406 180.164062 C 336.933594 182.605469 336.996094 185.050781 336.996094 187.496094 C 336.996094 189.945312 336.933594 192.390625 336.816406 194.832031 C 336.695312 197.277344 336.515625 199.714844 336.273438 202.152344 C 336.035156 204.585938 335.734375 207.011719 335.375 209.433594 C 335.015625 211.855469 334.597656 214.261719 334.121094 216.664062 C 333.644531 219.0625 333.109375 221.449219 332.515625 223.824219 C 331.917969 226.195312 331.265625 228.554688 330.558594 230.894531 C 329.847656 233.234375 329.078125 235.558594 328.253906 237.863281 C 327.429688 240.164062 326.550781 242.449219 325.613281 244.707031 C 324.679688 246.96875 323.6875 249.203125 322.640625 251.414062 C 321.59375 253.628906 320.496094 255.8125 319.34375 257.96875 C 318.1875 260.128906 316.984375 262.257812 315.726562 264.355469 C 314.46875 266.453125 313.160156 268.519531 311.800781 270.554688 C 310.441406 272.589844 309.03125 274.585938 307.574219 276.554688 C 306.117188 278.519531 304.613281 280.445312 303.058594 282.335938 C 301.507812 284.230469 299.910156 286.082031 298.265625 287.894531 C 296.625 289.707031 294.9375 291.476562 293.207031 293.207031 C 291.476562 294.9375 289.707031 296.625 287.894531 298.265625 C 286.082031 299.910156 284.230469 301.507812 282.335938 303.058594 C 280.445312 304.613281 278.519531 306.117188 276.554688 307.574219 C 274.585938 309.03125 272.589844 310.441406 270.554688 311.800781 C 268.519531 313.160156 266.453125 314.46875 264.355469 315.726562 C 262.257812 316.984375 260.128906 318.1875 257.96875 319.34375 C 255.8125 320.496094 253.628906 321.59375 251.414062 322.640625 C 249.203125 323.6875 246.96875 324.679688 244.707031 325.613281 C 242.449219 326.550781 240.164062 327.429688 237.863281 328.253906 C 235.558594 329.078125 233.234375 329.847656 230.894531 330.558594 C 228.554688 331.265625 226.195312 331.917969 223.824219 332.515625 C 221.449219 333.109375 219.0625 333.644531 216.664062 334.121094 C 214.261719 334.597656 211.855469 335.015625 209.433594 335.375 C 207.011719 335.734375 204.585938 336.035156 202.152344 336.273438 C 199.714844 336.515625 197.277344 336.695312 194.832031 336.816406 C 192.390625 336.933594 189.945312 336.996094 187.496094 336.996094 Z M 187.496094 336.996094 " fill-opacity="1" fill-rule="nonzero"/></g><path fill="#b7db63" d="M 259.476562 176.425781 L 142.261719 176.425781 L 167.675781 151.007812 C 168.1875 150.496094 168.648438 149.933594 169.050781 149.332031 C 169.457031 148.726562 169.796875 148.085938 170.074219 147.414062 C 170.351562 146.742188 170.5625 146.050781 170.703125 145.335938 C 170.84375 144.625 170.914062 143.902344 170.914062 143.175781 C 170.914062 142.449219 170.84375 141.730469 170.703125 141.015625 C 170.558594 140.304688 170.347656 139.609375 170.070312 138.9375 C 169.792969 138.265625 169.449219 137.628906 169.046875 137.023438 C 168.644531 136.417969 168.183594 135.859375 167.667969 135.347656 C 167.15625 134.832031 166.597656 134.371094 165.992188 133.96875 C 165.386719 133.566406 164.75 133.222656 164.078125 132.945312 C 163.40625 132.667969 162.710938 132.457031 162 132.3125 C 161.285156 132.171875 160.566406 132.101562 159.839844 132.101562 C 159.113281 132.101562 158.390625 132.171875 157.679688 132.3125 C 156.964844 132.453125 156.273438 132.664062 155.601562 132.941406 C 154.929688 133.21875 154.289062 133.558594 153.683594 133.964844 C 153.082031 134.367188 152.519531 134.828125 152.007812 135.339844 L 107.710938 179.636719 C 107.191406 180.160156 106.730469 180.734375 106.328125 181.351562 C 106.328125 181.351562 106.050781 181.90625 105.882812 182.183594 C 105.457031 182.847656 105.160156 183.566406 104.996094 184.339844 C 104.996094 184.675781 104.996094 184.949219 104.722656 185.28125 C 104.433594 186.722656 104.433594 188.164062 104.722656 189.601562 C 104.722656 189.933594 104.722656 190.210938 104.996094 190.542969 C 105.160156 191.316406 105.457031 192.035156 105.882812 192.703125 C 105.882812 192.980469 106.160156 193.257812 106.328125 193.53125 C 106.730469 194.152344 107.191406 194.722656 107.710938 195.25 L 152.007812 239.542969 C 152.519531 240.058594 153.082031 240.519531 153.683594 240.921875 C 154.289062 241.328125 154.929688 241.667969 155.601562 241.945312 C 156.273438 242.226562 156.964844 242.433594 157.679688 242.578125 C 158.394531 242.71875 159.113281 242.789062 159.839844 242.789062 C 160.566406 242.789062 161.289062 242.71875 162.003906 242.578125 C 162.714844 242.433594 163.410156 242.226562 164.082031 241.945312 C 164.753906 241.667969 165.390625 241.328125 165.996094 240.921875 C 166.601562 240.519531 167.160156 240.058594 167.675781 239.542969 C 168.191406 239.03125 168.648438 238.46875 169.054688 237.867188 C 169.457031 237.261719 169.800781 236.621094 170.078125 235.949219 C 170.355469 235.277344 170.566406 234.585938 170.707031 233.871094 C 170.851562 233.15625 170.921875 232.4375 170.921875 231.710938 C 170.921875 230.984375 170.851562 230.261719 170.707031 229.546875 C 170.566406 228.835938 170.355469 228.140625 170.078125 227.46875 C 169.800781 226.796875 169.457031 226.160156 169.054688 225.554688 C 168.648438 224.949219 168.191406 224.390625 167.675781 223.875 L 142.261719 198.570312 L 259.476562 198.570312 C 260.203125 198.570312 260.925781 198.5 261.636719 198.359375 C 262.351562 198.21875 263.042969 198.007812 263.714844 197.730469 C 264.386719 197.449219 265.027344 197.109375 265.628906 196.707031 C 266.234375 196.300781 266.792969 195.84375 267.308594 195.328125 C 267.820312 194.8125 268.28125 194.253906 268.683594 193.648438 C 269.089844 193.046875 269.429688 192.40625 269.707031 191.734375 C 269.988281 191.0625 270.195312 190.371094 270.339844 189.65625 C 270.480469 188.945312 270.550781 188.226562 270.550781 187.496094 C 270.550781 186.769531 270.480469 186.050781 270.339844 185.335938 C 270.195312 184.625 269.988281 183.933594 269.707031 183.261719 C 269.429688 182.589844 269.089844 181.949219 268.683594 181.34375 C 268.28125 180.742188 267.820312 180.179688 267.308594 179.667969 C 266.792969 179.152344 266.234375 178.695312 265.628906 178.289062 C 265.027344 177.886719 264.386719 177.546875 263.714844 177.265625 C 263.042969 176.988281 262.351562 176.777344 261.636719 176.636719 C 260.925781 176.496094 260.203125 176.425781 259.476562 176.425781 Z M 259.476562 176.425781 " fill-opacity="1" fill-rule="nonzero"/><g transform="matrix(1, 0, 0, 1, 21, 346)"><g clip-path="url(#72fe0533c1)"><g fill="#ffffff" fill-opacity="1"><g transform="translate(0.927099, 7.718362)"><g><path d="M 2.3125 -3.75 C 2.769531 -3.75 3.132812 -3.585938 3.40625 -3.265625 C 3.6875 -2.953125 3.828125 -2.476562 3.828125 -1.84375 C 3.828125 -1.425781 3.765625 -1.078125 3.640625 -0.796875 C 3.515625 -0.515625 3.335938 -0.300781 3.109375 -0.15625 C 2.878906 -0.0078125 2.609375 0.0625 2.296875 0.0625 C 2.109375 0.0625 1.9375 0.0351562 1.78125 -0.015625 C 1.632812 -0.0664062 1.507812 -0.132812 1.40625 -0.21875 C 1.300781 -0.300781 1.210938 -0.394531 1.140625 -0.5 L 1.109375 -0.5 C 1.117188 -0.414062 1.125 -0.3125 1.125 -0.1875 C 1.132812 -0.0625 1.140625 0.046875 1.140625 0.140625 L 1.140625 1.640625 L 0.59375 1.640625 L 0.59375 -3.671875 L 1.046875 -3.671875 L 1.125 -3.140625 L 1.140625 -3.140625 C 1.210938 -3.242188 1.300781 -3.34375 1.40625 -3.4375 C 1.507812 -3.53125 1.632812 -3.601562 1.78125 -3.65625 C 1.9375 -3.71875 2.113281 -3.75 2.3125 -3.75 Z M 2.21875 -3.28125 C 1.96875 -3.28125 1.765625 -3.226562 1.609375 -3.125 C 1.453125 -3.03125 1.335938 -2.882812 1.265625 -2.6875 C 1.191406 -2.488281 1.148438 -2.242188 1.140625 -1.953125 L 1.140625 -1.84375 C 1.140625 -1.53125 1.175781 -1.265625 1.25 -1.046875 C 1.320312 -0.835938 1.4375 -0.675781 1.59375 -0.5625 C 1.75 -0.445312 1.957031 -0.390625 2.21875 -0.390625 C 2.445312 -0.390625 2.640625 -0.453125 2.796875 -0.578125 C 2.953125 -0.703125 3.066406 -0.875 3.140625 -1.09375 C 3.210938 -1.3125 3.25 -1.566406 3.25 -1.859375 C 3.25 -2.285156 3.164062 -2.628906 3 -2.890625 C 2.832031 -3.148438 2.570312 -3.28125 2.21875 -3.28125 Z M 2.21875 -3.28125 "/></g></g></g></g></g></svg>