<svg xmlns="http://www.w3.org/2000/svg" xmlns:xlink="http://www.w3.org/1999/xlink" width="500" zoomAndPan="magnify" viewBox="0 0 375 374.999991" height="500" preserveAspectRatio="xMidYMid meet" version="1.0"><defs><g/><clipPath id="e2938cd076"><path d="M 16.785156 16.785156 L 358.035156 16.785156 L 358.035156 358.035156 L 16.785156 358.035156 Z M 16.785156 16.785156 " clip-rule="nonzero"/></clipPath><clipPath id="b1d39c7aab"><rect x="0" width="6" y="0" height="11"/></clipPath></defs><g clip-path="url(#e2938cd076)"><path fill="#8ea844" d="M 187.445312 189.503906 C 160.910156 189.503906 139.40625 168 139.40625 141.464844 C 139.40625 114.933594 160.910156 93.429688 187.445312 93.429688 C 213.976562 93.429688 235.480469 114.933594 235.480469 141.464844 C 235.480469 168 213.976562 189.503906 187.445312 189.503906 Z M 264.152344 249.828125 C 243.539062 232.25 216.757812 221.636719 187.441406 221.636719 C 158.128906 221.636719 131.347656 232.25 110.734375 249.828125 C 91.726562 266.042969 77.90625 288.140625 72.121094 313.28125 C 102.496094 341.132812 142.984375 358.132812 187.445312 358.132812 C 231.902344 358.132812 272.390625 341.132812 302.765625 313.28125 C 296.980469 288.140625 283.160156 266.042969 264.152344 249.828125 Z M 187.445312 16.753906 C 93.171875 16.753906 16.753906 93.171875 16.753906 187.445312 C 16.753906 223.933594 28.203125 257.742188 47.703125 285.488281 C 56.777344 262.191406 71.5 241.734375 90.179688 225.804688 C 102.914062 214.945312 117.472656 206.175781 133.324219 200.027344 C 132.554688 199.316406 131.800781 198.589844 131.0625 197.851562 C 116.628906 183.417969 107.703125 163.484375 107.703125 141.46875 C 107.703125 119.449219 116.628906 99.515625 131.0625 85.085938 C 145.492188 70.652344 165.425781 61.726562 187.445312 61.726562 C 209.460938 61.726562 229.394531 70.652344 243.824219 85.085938 C 258.257812 99.515625 267.183594 119.449219 267.183594 141.46875 C 267.183594 163.484375 258.257812 183.417969 243.824219 197.851562 C 243.085938 198.589844 242.328125 199.316406 241.5625 200.027344 C 257.414062 206.175781 271.972656 214.945312 284.707031 225.804688 C 303.386719 241.738281 318.105469 262.191406 327.183594 285.488281 C 346.683594 257.742188 358.132812 223.933594 358.132812 187.445312 C 358.132812 93.171875 281.714844 16.753906 187.445312 16.753906 Z M 187.445312 16.753906 " fill-opacity="1" fill-rule="evenodd"/></g><g transform="matrix(1, 0, 0, 1, 21, 346)"><g clip-path="url(#b1d39c7aab)"><g fill="#ffffff" fill-opacity="1"><g transform="translate(0.927099, 7.718362)"><g><path d="M 2.3125 -3.75 C 2.769531 -3.75 3.132812 -3.585938 3.40625 -3.265625 C 3.6875 -2.953125 3.828125 -2.476562 3.828125 -1.84375 C 3.828125 -1.425781 3.765625 -1.078125 3.640625 -0.796875 C 3.515625 -0.515625 3.335938 -0.300781 3.109375 -0.15625 C 2.878906 -0.0078125 2.609375 0.0625 2.296875 0.0625 C 2.109375 0.0625 1.9375 0.0351562 1.78125 -0.015625 C 1.632812 -0.0664062 1.507812 -0.132812 1.40625 -0.21875 C 1.300781 -0.300781 1.210938 -0.394531 1.140625 -0.5 L 1.109375 -0.5 C 1.117188 -0.414062 1.125 -0.3125 1.125 -0.1875 C 1.132812 -0.0625 1.140625 0.046875 1.140625 0.140625 L 1.140625 1.640625 L 0.59375 1.640625 L 0.59375 -3.671875 L 1.046875 -3.671875 L 1.125 -3.140625 L 1.140625 -3.140625 C 1.210938 -3.242188 1.300781 -3.34375 1.40625 -3.4375 C 1.507812 -3.53125 1.632812 -3.601562 1.78125 -3.65625 C 1.9375 -3.71875 2.113281 -3.75 2.3125 -3.75 Z M 2.21875 -3.28125 C 1.96875 -3.28125 1.765625 -3.226562 1.609375 -3.125 C 1.453125 -3.03125 1.335938 -2.882812 1.265625 -2.6875 C 1.191406 -2.488281 1.148438 -2.242188 1.140625 -1.953125 L 1.140625 -1.84375 C 1.140625 -1.53125 1.175781 -1.265625 1.25 -1.046875 C 1.320312 -0.835938 1.4375 -0.675781 1.59375 -0.5625 C 1.75 -0.445312 1.957031 -0.390625 2.21875 -0.390625 C 2.445312 -0.390625 2.640625 -0.453125 2.796875 -0.578125 C 2.953125 -0.703125 3.066406 -0.875 3.140625 -1.09375 C 3.210938 -1.3125 3.25 -1.566406 3.25 -1.859375 C 3.25 -2.285156 3.164062 -2.628906 3 -2.890625 C 2.832031 -3.148438 2.570312 -3.28125 2.21875 -3.28125 Z M 2.21875 -3.28125 "/></g></g></g></g></g></svg>