<svg xmlns="http://www.w3.org/2000/svg" xmlns:xlink="http://www.w3.org/1999/xlink" width="500" zoomAndPan="magnify" viewBox="0 0 375 374.999991" height="500" preserveAspectRatio="xMidYMid meet" version="1.0"><defs><g/><clipPath id="427dbf0d79"><path d="M 76 8.40625 L 215 8.40625 L 215 147 L 76 147 Z M 76 8.40625 " clip-rule="nonzero"/></clipPath><clipPath id="c2a6f4b608"><path d="M 39.148438 161 L 235 161 L 235 316 L 39.148438 316 Z M 39.148438 161 " clip-rule="nonzero"/></clipPath><clipPath id="63bebd166f"><path d="M 181 212 L 336 212 L 336 366.90625 L 181 366.90625 Z M 181 212 " clip-rule="nonzero"/></clipPath><clipPath id="3f502b7ba1"><rect x="0" width="6" y="0" height="11"/></clipPath></defs><g clip-path="url(#427dbf0d79)"><path fill="#8ea844" d="M 145.589844 146.285156 C 183.671875 146.285156 214.550781 115.40625 214.550781 77.328125 C 214.550781 39.285156 183.632812 8.40625 145.589844 8.40625 C 107.507812 8.40625 76.667969 39.285156 76.667969 77.328125 C 76.667969 115.40625 107.507812 146.285156 145.589844 146.285156 Z M 145.589844 146.285156 " fill-opacity="1" fill-rule="nonzero"/></g><g clip-path="url(#c2a6f4b608)"><path fill="#8ea844" d="M 234.457031 192.964844 C 225.9375 178.257812 212.289062 167.023438 196.226562 161.105469 C 181.40625 170.078125 164.101562 175.355469 145.589844 175.355469 C 127.078125 175.355469 109.769531 170.078125 95.066406 161.105469 C 69.769531 170.339844 50.726562 192.964844 47.335938 221.050781 L 40.058594 293.59375 C 39.152344 302.492188 45.636719 310.484375 54.609375 311.464844 C 80.023438 314.253906 122.628906 315.5 162.59375 315.046875 C 160.445312 306.867188 159.277344 298.34375 159.277344 289.484375 C 159.238281 242.957031 191.285156 203.820312 234.457031 192.964844 Z M 234.457031 192.964844 " fill-opacity="1" fill-rule="nonzero"/></g><g clip-path="url(#63bebd166f)"><path fill="#8ea844" d="M 258.738281 212.382812 C 216.207031 212.382812 181.632812 246.953125 181.632812 289.484375 C 181.632812 332.015625 216.207031 366.589844 258.738281 366.589844 C 301.265625 366.589844 335.839844 332.015625 335.839844 289.484375 C 335.839844 246.953125 301.265625 212.382812 258.738281 212.382812 Z M 206.066406 262.902344 C 216.207031 242.882812 236.378906 230.441406 258.738281 230.441406 C 281.097656 230.441406 301.265625 242.882812 311.410156 262.867188 C 312.539062 265.128906 312.238281 267.730469 310.582031 269.691406 C 308.921875 271.6875 306.359375 272.480469 303.945312 271.6875 C 289.917969 267.429688 274.6875 265.316406 258.777344 265.316406 C 242.863281 265.316406 227.632812 267.464844 213.570312 271.726562 C 211.117188 272.480469 208.59375 271.6875 206.933594 269.726562 C 205.238281 267.804688 204.933594 265.164062 206.066406 262.902344 Z M 242.300781 343.324219 C 240.488281 344.605469 238.191406 344.871094 236.078125 344.003906 C 219.980469 337.292969 207.726562 323.871094 202.484375 307.242188 C 201.503906 304.113281 203.199219 300.71875 206.40625 299.515625 C 208.59375 298.722656 210.777344 297.96875 213.003906 297.289062 C 216.058594 296.382812 219.300781 297.742188 220.621094 300.53125 C 224.765625 309.429688 231.929688 316.667969 240.792969 320.855469 C 242.941406 321.871094 244.335938 323.945312 244.449219 326.246094 L 245.015625 337.859375 C 245.089844 340.082031 244.109375 342.042969 242.300781 343.324219 Z M 258.738281 306.828125 C 251.988281 306.828125 246.484375 301.324219 246.484375 294.574219 C 246.484375 287.824219 251.988281 282.320312 258.738281 282.320312 C 265.488281 282.320312 270.992188 287.824219 270.992188 294.574219 C 270.992188 301.324219 265.488281 306.828125 258.738281 306.828125 Z M 281.398438 343.964844 C 279.324219 344.832031 277.023438 344.570312 275.175781 343.324219 C 273.367188 342.082031 272.386719 340.082031 272.5 337.859375 L 273.066406 326.285156 C 273.179688 323.984375 274.574219 321.910156 276.722656 320.890625 C 285.582031 316.707031 292.746094 309.46875 296.894531 300.53125 C 297.910156 298.34375 300.175781 296.988281 302.585938 296.988281 C 303.226562 296.988281 303.867188 297.101562 304.511719 297.289062 C 306.734375 297.96875 308.921875 298.722656 311.109375 299.515625 C 314.3125 300.683594 316.007812 304.074219 315.03125 307.242188 C 309.75 323.871094 297.496094 337.253906 281.398438 343.964844 Z M 281.398438 343.964844 " fill-opacity="1" fill-rule="nonzero"/></g><g transform="matrix(1, 0, 0, 1, 21, 346)"><g clip-path="url(#3f502b7ba1)"><g fill="#ffffff" fill-opacity="1"><g transform="translate(0.927099, 7.718362)"><g><path d="M 2.3125 -3.75 C 2.769531 -3.75 3.132812 -3.585938 3.40625 -3.265625 C 3.6875 -2.953125 3.828125 -2.476562 3.828125 -1.84375 C 3.828125 -1.425781 3.765625 -1.078125 3.640625 -0.796875 C 3.515625 -0.515625 3.335938 -0.300781 3.109375 -0.15625 C 2.878906 -0.0078125 2.609375 0.0625 2.296875 0.0625 C 2.109375 0.0625 1.9375 0.0351562 1.78125 -0.015625 C 1.632812 -0.0664062 1.507812 -0.132812 1.40625 -0.21875 C 1.300781 -0.300781 1.210938 -0.394531 1.140625 -0.5 L 1.109375 -0.5 C 1.117188 -0.414062 1.125 -0.3125 1.125 -0.1875 C 1.132812 -0.0625 1.140625 0.046875 1.140625 0.140625 L 1.140625 1.640625 L 0.59375 1.640625 L 0.59375 -3.671875 L 1.046875 -3.671875 L 1.125 -3.140625 L 1.140625 -3.140625 C 1.210938 -3.242188 1.300781 -3.34375 1.40625 -3.4375 C 1.507812 -3.53125 1.632812 -3.601562 1.78125 -3.65625 C 1.9375 -3.71875 2.113281 -3.75 2.3125 -3.75 Z M 2.21875 -3.28125 C 1.96875 -3.28125 1.765625 -3.226562 1.609375 -3.125 C 1.453125 -3.03125 1.335938 -2.882812 1.265625 -2.6875 C 1.191406 -2.488281 1.148438 -2.242188 1.140625 -1.953125 L 1.140625 -1.84375 C 1.140625 -1.53125 1.175781 -1.265625 1.25 -1.046875 C 1.320312 -0.835938 1.4375 -0.675781 1.59375 -0.5625 C 1.75 -0.445312 1.957031 -0.390625 2.21875 -0.390625 C 2.445312 -0.390625 2.640625 -0.453125 2.796875 -0.578125 C 2.953125 -0.703125 3.066406 -0.875 3.140625 -1.09375 C 3.210938 -1.3125 3.25 -1.566406 3.25 -1.859375 C 3.25 -2.285156 3.164062 -2.628906 3 -2.890625 C 2.832031 -3.148438 2.570312 -3.28125 2.21875 -3.28125 Z M 2.21875 -3.28125 "/></g></g></g></g></g></svg>