<svg xmlns="http://www.w3.org/2000/svg" xmlns:xlink="http://www.w3.org/1999/xlink" width="500" zoomAndPan="magnify" viewBox="0 0 375 374.999991" height="500" preserveAspectRatio="xMidYMid meet" version="1.0"><defs><g/><clipPath id="1b93413e2e"><path d="M 81.695312 12.25 L 293.195312 12.25 L 293.195312 302 L 81.695312 302 Z M 81.695312 12.25 " clip-rule="nonzero"/></clipPath><clipPath id="95cc49ee2e"><path d="M 90 264 L 285 264 L 285 362.5 L 90 362.5 Z M 90 264 " clip-rule="nonzero"/></clipPath><clipPath id="5ab4d10cab"><rect x="0" width="6" y="0" height="11"/></clipPath></defs><g clip-path="url(#1b93413e2e)"><path fill="#8ea844" d="M 187.53125 29.609375 C 236.453125 29.609375 276.253906 69.40625 276.253906 118.316406 C 276.253906 156.765625 217.375 240.488281 187.53125 278.898438 C 157.703125 240.488281 98.824219 156.765625 98.824219 118.316406 C 98.824219 69.40625 138.625 29.609375 187.53125 29.609375 Z M 187.53125 301.242188 C 190.117188 301.242188 192.566406 300.070312 194.191406 298.054688 C 198.234375 293.03125 293.355469 174.414062 293.355469 118.316406 C 293.355469 59.972656 245.882812 12.503906 187.53125 12.503906 C 129.191406 12.503906 81.722656 59.972656 81.722656 118.316406 C 81.722656 174.414062 176.828125 293.03125 180.871094 298.054688 C 182.5 300.070312 184.949219 301.242188 187.53125 301.242188 " fill-opacity="1" fill-rule="nonzero"/></g><path fill="#8ea844" d="M 187.523438 123.621094 C 170.074219 123.621094 155.886719 109.425781 155.886719 91.976562 C 155.886719 74.527344 170.074219 60.335938 187.523438 60.335938 C 204.972656 60.335938 219.167969 74.527344 219.167969 91.976562 C 219.167969 109.425781 204.972656 123.621094 187.523438 123.621094 Z M 236.273438 91.976562 C 236.273438 65.097656 214.40625 43.230469 187.523438 43.230469 C 160.652344 43.230469 138.78125 65.097656 138.78125 91.976562 C 138.78125 118.859375 160.652344 140.726562 187.523438 140.726562 C 214.40625 140.726562 236.273438 118.859375 236.273438 91.976562 " fill-opacity="1" fill-rule="nonzero"/><g clip-path="url(#95cc49ee2e)"><path fill="#8ea844" d="M 250.183594 264.910156 C 245.917969 262.875 240.820312 264.722656 238.792969 268.976562 C 236.761719 273.246094 238.589844 278.347656 242.855469 280.367188 C 258.421875 287.742188 267.355469 297.542969 267.355469 307.265625 C 267.355469 325.253906 234.570312 345.304688 187.53125 345.304688 C 140.496094 345.304688 107.722656 325.253906 107.722656 307.265625 C 107.722656 297.542969 116.65625 287.742188 132.222656 280.367188 C 136.488281 278.347656 138.3125 273.246094 136.285156 268.976562 C 134.269531 264.710938 129.160156 262.875 124.894531 264.910156 C 103.113281 275.226562 90.617188 290.667969 90.617188 307.265625 C 90.617188 338.1875 133.1875 362.410156 187.53125 362.410156 C 241.886719 362.410156 284.460938 338.1875 284.460938 307.265625 C 284.460938 290.667969 271.964844 275.226562 250.183594 264.910156 " fill-opacity="1" fill-rule="nonzero"/></g><g transform="matrix(1, 0, 0, 1, 21, 346)"><g clip-path="url(#5ab4d10cab)"><g fill="#ffffff" fill-opacity="1"><g transform="translate(0.927099, 7.718362)"><g><path d="M 2.3125 -3.75 C 2.769531 -3.75 3.132812 -3.585938 3.40625 -3.265625 C 3.6875 -2.953125 3.828125 -2.476562 3.828125 -1.84375 C 3.828125 -1.425781 3.765625 -1.078125 3.640625 -0.796875 C 3.515625 -0.515625 3.335938 -0.300781 3.109375 -0.15625 C 2.878906 -0.0078125 2.609375 0.0625 2.296875 0.0625 C 2.109375 0.0625 1.9375 0.0351562 1.78125 -0.015625 C 1.632812 -0.0664062 1.507812 -0.132812 1.40625 -0.21875 C 1.300781 -0.300781 1.210938 -0.394531 1.140625 -0.5 L 1.109375 -0.5 C 1.117188 -0.414062 1.125 -0.3125 1.125 -0.1875 C 1.132812 -0.0625 1.140625 0.046875 1.140625 0.140625 L 1.140625 1.640625 L 0.59375 1.640625 L 0.59375 -3.671875 L 1.046875 -3.671875 L 1.125 -3.140625 L 1.140625 -3.140625 C 1.210938 -3.242188 1.300781 -3.34375 1.40625 -3.4375 C 1.507812 -3.53125 1.632812 -3.601562 1.78125 -3.65625 C 1.9375 -3.71875 2.113281 -3.75 2.3125 -3.75 Z M 2.21875 -3.28125 C 1.96875 -3.28125 1.765625 -3.226562 1.609375 -3.125 C 1.453125 -3.03125 1.335938 -2.882812 1.265625 -2.6875 C 1.191406 -2.488281 1.148438 -2.242188 1.140625 -1.953125 L 1.140625 -1.84375 C 1.140625 -1.53125 1.175781 -1.265625 1.25 -1.046875 C 1.320312 -0.835938 1.4375 -0.675781 1.59375 -0.5625 C 1.75 -0.445312 1.957031 -0.390625 2.21875 -0.390625 C 2.445312 -0.390625 2.640625 -0.453125 2.796875 -0.578125 C 2.953125 -0.703125 3.066406 -0.875 3.140625 -1.09375 C 3.210938 -1.3125 3.25 -1.566406 3.25 -1.859375 C 3.25 -2.285156 3.164062 -2.628906 3 -2.890625 C 2.832031 -3.148438 2.570312 -3.28125 2.21875 -3.28125 Z M 2.21875 -3.28125 "/></g></g></g></g></g></svg>