<svg xmlns="http://www.w3.org/2000/svg" xmlns:xlink="http://www.w3.org/1999/xlink" width="500" zoomAndPan="magnify" viewBox="0 0 375 374.999991" height="500" preserveAspectRatio="xMidYMid meet" version="1.0"><defs><g/></defs><path fill="#b7db63" d="M 201.640625 84.570312 C 200.683594 83.609375 199.703125 82.675781 198.699219 81.765625 C 197.695312 80.859375 196.667969 79.972656 195.621094 79.113281 C 194.574219 78.253906 193.507812 77.421875 192.417969 76.613281 C 191.332031 75.808594 190.222656 75.027344 189.097656 74.273438 C 187.96875 73.519531 186.828125 72.796875 185.664062 72.101562 C 184.503906 71.402344 183.324219 70.738281 182.128906 70.097656 C 180.933594 69.460938 179.722656 68.851562 178.5 68.269531 C 177.273438 67.691406 176.035156 67.144531 174.785156 66.625 C 173.535156 66.105469 172.269531 65.617188 170.996094 65.160156 C 169.71875 64.707031 168.433594 64.28125 167.136719 63.886719 C 165.839844 63.496094 164.535156 63.132812 163.222656 62.804688 C 161.90625 62.476562 160.585938 62.179688 159.257812 61.914062 C 157.929688 61.648438 156.59375 61.417969 155.253906 61.21875 C 153.914062 61.019531 152.570312 60.855469 151.222656 60.722656 C 149.871094 60.589844 148.523438 60.488281 147.167969 60.421875 C 145.816406 60.355469 144.460938 60.324219 143.105469 60.324219 C 141.753906 60.324219 140.398438 60.355469 139.046875 60.421875 C 137.691406 60.488281 136.339844 60.589844 134.992188 60.722656 C 133.644531 60.855469 132.300781 61.019531 130.960938 61.21875 C 129.621094 61.417969 128.285156 61.648438 126.957031 61.914062 C 125.628906 62.179688 124.308594 62.472656 122.992188 62.804688 C 121.679688 63.132812 120.375 63.492188 119.078125 63.886719 C 117.78125 64.28125 116.496094 64.707031 115.21875 65.160156 C 113.945312 65.617188 112.679688 66.105469 111.429688 66.625 C 110.175781 67.140625 108.9375 67.691406 107.714844 68.269531 C 106.488281 68.851562 105.28125 69.457031 104.085938 70.097656 C 102.890625 70.734375 101.710938 71.402344 100.550781 72.101562 C 99.386719 72.796875 98.242188 73.519531 97.117188 74.273438 C 95.992188 75.027344 94.882812 75.804688 93.796875 76.613281 C 92.707031 77.421875 91.640625 78.253906 90.59375 79.113281 C 89.546875 79.972656 88.519531 80.855469 87.515625 81.765625 C 86.511719 82.675781 85.53125 83.609375 84.574219 84.566406 C 83.613281 85.527344 82.679688 86.507812 81.769531 87.511719 C 80.863281 88.515625 79.976562 89.539062 79.117188 90.585938 C 78.257812 91.632812 77.425781 92.703125 76.617188 93.789062 C 75.8125 94.878906 75.03125 95.984375 74.277344 97.113281 C 73.527344 98.238281 72.800781 99.382812 72.105469 100.546875 C 71.40625 101.707031 70.742188 102.886719 70.101562 104.082031 C 69.464844 105.273438 68.855469 106.484375 68.273438 107.710938 C 67.695312 108.933594 67.148438 110.171875 66.628906 111.425781 C 66.109375 112.675781 65.621094 113.9375 65.167969 115.214844 C 64.710938 116.492188 64.285156 117.777344 63.890625 119.074219 C 63.5 120.367188 63.136719 121.675781 62.808594 122.988281 C 62.480469 124.300781 62.183594 125.625 61.917969 126.953125 C 61.652344 128.28125 61.421875 129.617188 61.222656 130.957031 C 61.023438 132.296875 60.859375 133.640625 60.726562 134.988281 C 60.59375 136.335938 60.492188 137.6875 60.425781 139.039062 C 60.359375 140.394531 60.328125 141.746094 60.328125 143.101562 C 60.328125 144.457031 60.359375 145.8125 60.425781 147.164062 C 60.492188 148.515625 60.59375 149.867188 60.726562 151.214844 C 60.859375 152.5625 61.023438 153.910156 61.222656 155.25 C 61.421875 156.589844 61.652344 157.921875 61.917969 159.25 C 62.183594 160.582031 62.480469 161.902344 62.808594 163.214844 C 63.136719 164.53125 63.5 165.835938 63.890625 167.132812 C 64.285156 168.429688 64.710938 169.714844 65.167969 170.988281 C 65.621094 172.265625 66.109375 173.527344 66.628906 174.78125 C 67.148438 176.03125 67.695312 177.269531 68.273438 178.496094 C 68.855469 179.71875 69.464844 180.929688 70.101562 182.125 C 70.742188 183.320312 71.40625 184.496094 72.105469 185.660156 C 72.800781 186.820312 73.527344 187.964844 74.277344 189.09375 C 75.03125 190.21875 75.8125 191.324219 76.617188 192.414062 C 77.425781 193.503906 78.257812 194.570312 79.117188 195.617188 C 79.976562 196.664062 80.863281 197.691406 81.769531 198.695312 C 82.679688 199.699219 83.613281 200.679688 84.574219 201.636719 C 85.53125 202.59375 86.511719 203.527344 87.515625 204.4375 C 88.519531 205.347656 89.546875 206.230469 90.59375 207.089844 C 91.640625 207.953125 92.707031 208.785156 93.796875 209.589844 C 94.882812 210.398438 95.992188 211.179688 97.117188 211.929688 C 98.242188 212.683594 99.386719 213.40625 100.550781 214.105469 C 101.710938 214.800781 102.890625 215.46875 104.085938 216.105469 C 105.28125 216.746094 106.488281 217.355469 107.714844 217.933594 C 108.9375 218.511719 110.175781 219.0625 111.429688 219.582031 C 112.679688 220.097656 113.945312 220.585938 115.21875 221.042969 C 116.496094 221.5 117.78125 221.925781 119.078125 222.316406 C 120.375 222.710938 121.679688 223.070312 122.992188 223.402344 C 124.308594 223.730469 125.628906 224.027344 126.957031 224.292969 C 128.285156 224.554688 129.621094 224.785156 130.960938 224.984375 C 132.300781 225.183594 133.644531 225.351562 134.992188 225.484375 C 136.339844 225.617188 137.691406 225.714844 139.046875 225.78125 C 140.398438 225.847656 141.753906 225.882812 143.105469 225.882812 C 144.460938 225.882812 145.816406 225.847656 147.167969 225.78125 C 148.523438 225.714844 149.871094 225.617188 151.222656 225.484375 C 152.570312 225.351562 153.914062 225.183594 155.253906 224.984375 C 156.59375 224.785156 157.929688 224.554688 159.257812 224.289062 C 160.585938 224.027344 161.90625 223.730469 163.222656 223.402344 C 164.535156 223.070312 165.839844 222.710938 167.136719 222.316406 C 168.433594 221.921875 169.71875 221.5 170.996094 221.042969 C 172.269531 220.585938 173.535156 220.097656 174.785156 219.582031 C 176.035156 219.0625 177.273438 218.511719 178.5 217.933594 C 179.722656 217.355469 180.933594 216.746094 182.128906 216.105469 C 183.324219 215.46875 184.503906 214.800781 185.664062 214.105469 C 186.828125 213.40625 187.96875 212.683594 189.097656 211.929688 C 190.222656 211.179688 191.332031 210.398438 192.417969 209.589844 C 193.507812 208.785156 194.574219 207.949219 195.621094 207.089844 C 196.667969 206.230469 197.695312 205.347656 198.699219 204.4375 C 199.703125 203.527344 200.683594 202.59375 201.640625 201.636719 C 202.605469 200.683594 203.550781 199.707031 204.464844 198.707031 C 205.382812 197.707031 206.277344 196.683594 207.144531 195.640625 C 208.011719 194.597656 208.851562 193.53125 209.667969 192.445312 C 210.480469 191.359375 211.269531 190.253906 212.027344 189.128906 C 212.785156 188.003906 213.519531 186.863281 214.222656 185.699219 C 214.925781 184.539062 215.597656 183.363281 216.242188 182.167969 C 216.886719 180.972656 217.503906 179.765625 218.085938 178.539062 C 218.671875 177.316406 219.226562 176.078125 219.75 174.824219 C 220.273438 173.570312 220.765625 172.308594 221.226562 171.03125 C 221.6875 169.753906 222.117188 168.46875 222.515625 167.167969 C 222.910156 165.871094 223.277344 164.566406 223.609375 163.25 C 223.941406 161.933594 224.242188 160.609375 224.507812 159.28125 C 224.773438 157.949219 225.007812 156.613281 225.210938 155.269531 C 225.410156 153.925781 225.578125 152.582031 225.710938 151.230469 C 225.847656 149.878906 225.949219 148.527344 226.015625 147.171875 C 226.082031 145.816406 226.117188 144.460938 226.117188 143.101562 C 226.117188 141.746094 226.082031 140.390625 226.015625 139.03125 C 225.949219 137.675781 225.847656 136.324219 225.710938 134.972656 C 225.578125 133.625 225.410156 132.277344 225.210938 130.933594 C 225.007812 129.59375 224.773438 128.257812 224.507812 126.925781 C 224.242188 125.59375 223.941406 124.269531 223.609375 122.957031 C 223.277344 121.640625 222.910156 120.332031 222.515625 119.035156 C 222.117188 117.738281 221.6875 116.449219 221.226562 115.171875 C 220.765625 113.898438 220.273438 112.632812 219.75 111.378906 C 219.226562 110.128906 218.671875 108.890625 218.085938 107.664062 C 217.503906 106.441406 216.886719 105.230469 216.242188 104.035156 C 215.597656 102.84375 214.925781 101.664062 214.222656 100.503906 C 213.519531 99.34375 212.785156 98.199219 212.027344 97.074219 C 211.269531 95.949219 210.480469 94.84375 209.667969 93.757812 C 208.851562 92.671875 208.011719 91.609375 207.144531 90.566406 C 206.277344 89.519531 205.382812 88.5 204.464844 87.5 C 203.550781 86.5 202.605469 85.523438 201.640625 84.570312 Z M 195.097656 195.097656 C 194.246094 195.949219 193.375 196.777344 192.484375 197.585938 C 191.589844 198.394531 190.679688 199.179688 189.75 199.941406 C 188.820312 200.707031 187.871094 201.445312 186.90625 202.164062 C 185.9375 202.878906 184.953125 203.570312 183.953125 204.242188 C 182.953125 204.910156 181.9375 205.550781 180.90625 206.171875 C 179.871094 206.789062 178.828125 207.382812 177.765625 207.949219 C 176.703125 208.515625 175.628906 209.058594 174.542969 209.574219 C 173.453125 210.085938 172.355469 210.574219 171.242188 211.035156 C 170.128906 211.496094 169.007812 211.929688 167.875 212.332031 C 166.742188 212.738281 165.601562 213.117188 164.449219 213.464844 C 163.296875 213.816406 162.136719 214.136719 160.96875 214.429688 C 159.804688 214.722656 158.628906 214.984375 157.449219 215.21875 C 156.269531 215.453125 155.082031 215.660156 153.894531 215.835938 C 152.703125 216.011719 151.507812 216.160156 150.3125 216.277344 C 149.113281 216.394531 147.914062 216.484375 146.710938 216.542969 C 145.511719 216.601562 144.308594 216.632812 143.105469 216.632812 C 141.902344 216.632812 140.699219 216.601562 139.496094 216.542969 C 138.292969 216.484375 137.09375 216.394531 135.898438 216.277344 C 134.699219 216.160156 133.503906 216.011719 132.316406 215.835938 C 131.125 215.660156 129.941406 215.453125 128.757812 215.21875 C 127.578125 214.984375 126.40625 214.71875 125.238281 214.429688 C 124.070312 214.136719 122.910156 213.816406 121.761719 213.464844 C 120.609375 213.117188 119.464844 212.738281 118.332031 212.332031 C 117.199219 211.929688 116.078125 211.496094 114.964844 211.035156 C 113.855469 210.574219 112.753906 210.085938 111.667969 209.570312 C 110.578125 209.058594 109.503906 208.515625 108.445312 207.949219 C 107.382812 207.382812 106.335938 206.789062 105.304688 206.171875 C 104.269531 205.550781 103.253906 204.910156 102.253906 204.238281 C 101.253906 203.570312 100.269531 202.878906 99.304688 202.160156 C 98.335938 201.445312 97.390625 200.703125 96.457031 199.941406 C 95.527344 199.179688 94.617188 198.390625 93.726562 197.585938 C 92.835938 196.777344 91.964844 195.945312 91.113281 195.097656 C 90.261719 194.246094 89.433594 193.375 88.625 192.480469 C 87.816406 191.589844 87.03125 190.679688 86.265625 189.75 C 85.503906 188.820312 84.761719 187.871094 84.046875 186.902344 C 83.328125 185.9375 82.636719 184.953125 81.96875 183.953125 C 81.300781 182.953125 80.65625 181.9375 80.039062 180.90625 C 79.417969 179.871094 78.824219 178.824219 78.257812 177.765625 C 77.691406 176.703125 77.152344 175.628906 76.636719 174.539062 C 76.121094 173.453125 75.632812 172.351562 75.171875 171.242188 C 74.714844 170.128906 74.28125 169.007812 73.875 167.875 C 73.46875 166.742188 73.09375 165.597656 72.742188 164.449219 C 72.394531 163.296875 72.074219 162.136719 71.78125 160.96875 C 71.488281 159.800781 71.222656 158.628906 70.988281 157.449219 C 70.753906 156.269531 70.550781 155.082031 70.371094 153.890625 C 70.195312 152.703125 70.046875 151.507812 69.929688 150.3125 C 69.8125 149.113281 69.722656 147.914062 69.664062 146.710938 C 69.605469 145.507812 69.578125 144.308594 69.578125 143.105469 C 69.578125 141.898438 69.605469 140.699219 69.664062 139.496094 C 69.722656 138.292969 69.8125 137.09375 69.929688 135.898438 C 70.046875 134.699219 70.195312 133.503906 70.371094 132.316406 C 70.550781 131.125 70.753906 129.9375 70.988281 128.757812 C 71.222656 127.578125 71.488281 126.40625 71.78125 125.238281 C 72.074219 124.070312 72.394531 122.910156 72.742188 121.757812 C 73.09375 120.609375 73.46875 119.464844 73.875 118.332031 C 74.28125 117.199219 74.714844 116.078125 75.171875 114.964844 C 75.632812 113.855469 76.121094 112.753906 76.636719 111.667969 C 77.152344 110.578125 77.691406 109.503906 78.257812 108.441406 C 78.824219 107.382812 79.417969 106.335938 80.039062 105.300781 C 80.65625 104.269531 81.300781 103.253906 81.96875 102.253906 C 82.636719 101.253906 83.328125 100.269531 84.046875 99.304688 C 84.761719 98.335938 85.503906 97.386719 86.265625 96.457031 C 87.03125 95.527344 87.816406 94.617188 88.625 93.726562 C 89.433594 92.832031 90.261719 91.960938 91.113281 91.113281 C 91.964844 90.261719 92.835938 89.429688 93.726562 88.621094 C 94.617188 87.816406 95.527344 87.027344 96.457031 86.265625 C 97.390625 85.503906 98.335938 84.761719 99.304688 84.046875 C 100.269531 83.328125 101.253906 82.636719 102.253906 81.96875 C 103.253906 81.296875 104.269531 80.65625 105.304688 80.035156 C 106.335938 79.417969 107.382812 78.824219 108.445312 78.257812 C 109.503906 77.691406 110.578125 77.148438 111.667969 76.636719 C 112.753906 76.121094 113.855469 75.632812 114.964844 75.171875 C 116.078125 74.710938 117.199219 74.277344 118.332031 73.875 C 119.464844 73.46875 120.609375 73.089844 121.761719 72.742188 C 122.910156 72.390625 124.070312 72.070312 125.238281 71.777344 C 126.40625 71.488281 127.578125 71.222656 128.757812 70.988281 C 129.941406 70.753906 131.125 70.546875 132.316406 70.371094 C 133.503906 70.195312 134.699219 70.046875 135.898438 69.929688 C 137.09375 69.8125 138.292969 69.722656 139.496094 69.664062 C 140.699219 69.605469 141.902344 69.574219 143.105469 69.574219 C 144.308594 69.574219 145.511719 69.605469 146.710938 69.664062 C 147.914062 69.722656 149.113281 69.8125 150.3125 69.929688 C 151.507812 70.046875 152.703125 70.195312 153.894531 70.371094 C 155.082031 70.546875 156.269531 70.753906 157.449219 70.988281 C 158.628906 71.222656 159.804688 71.488281 160.96875 71.777344 C 162.136719 72.070312 163.296875 72.390625 164.449219 72.742188 C 165.601562 73.089844 166.742188 73.46875 167.875 73.875 C 169.007812 74.277344 170.128906 74.710938 171.242188 75.171875 C 172.355469 75.632812 173.453125 76.121094 174.542969 76.632812 C 175.628906 77.148438 176.703125 77.691406 177.765625 78.257812 C 178.828125 78.824219 179.875 79.417969 180.90625 80.035156 C 181.9375 80.65625 182.953125 81.296875 183.953125 81.96875 C 184.953125 82.636719 185.9375 83.328125 186.90625 84.042969 C 187.871094 84.761719 188.820312 85.5 189.75 86.265625 C 190.679688 87.027344 191.589844 87.8125 192.484375 88.621094 C 193.375 89.429688 194.246094 90.261719 195.097656 91.109375 C 195.953125 91.957031 196.792969 92.824219 197.605469 93.714844 C 198.421875 94.601562 199.214844 95.507812 199.984375 96.4375 C 200.753906 97.363281 201.5 98.308594 202.222656 99.273438 C 202.949219 100.238281 203.648438 101.222656 204.320312 102.21875 C 204.996094 103.21875 205.644531 104.234375 206.269531 105.265625 C 206.894531 106.296875 207.492188 107.34375 208.066406 108.402344 C 208.640625 109.464844 209.183594 110.539062 209.703125 111.625 C 210.222656 112.714844 210.714844 113.8125 211.179688 114.925781 C 211.644531 116.039062 212.082031 117.160156 212.492188 118.296875 C 212.902344 119.429688 213.285156 120.574219 213.636719 121.726562 C 213.988281 122.878906 214.3125 124.039062 214.609375 125.207031 C 214.902344 126.378906 215.171875 127.550781 215.40625 128.734375 C 215.644531 129.917969 215.851562 131.101562 216.03125 132.296875 C 216.207031 133.488281 216.359375 134.683594 216.476562 135.882812 C 216.597656 137.082031 216.683594 138.285156 216.746094 139.488281 C 216.804688 140.691406 216.835938 141.898438 216.835938 143.105469 C 216.835938 144.308594 216.804688 145.515625 216.746094 146.71875 C 216.683594 147.921875 216.597656 149.125 216.476562 150.324219 C 216.359375 151.523438 216.207031 152.71875 216.03125 153.910156 C 215.851562 155.105469 215.644531 156.289062 215.40625 157.472656 C 215.171875 158.65625 214.902344 159.832031 214.609375 161 C 214.3125 162.167969 213.988281 163.328125 213.636719 164.480469 C 213.285156 165.632812 212.902344 166.777344 212.492188 167.910156 C 212.082031 169.046875 211.644531 170.167969 211.179688 171.28125 C 210.714844 172.394531 210.222656 173.492188 209.703125 174.582031 C 209.183594 175.667969 208.640625 176.742188 208.066406 177.804688 C 207.492188 178.863281 206.894531 179.910156 206.269531 180.941406 C 205.644531 181.972656 204.996094 182.988281 204.320312 183.988281 C 203.648438 184.988281 202.949219 185.96875 202.222656 186.933594 C 201.5 187.898438 200.753906 188.84375 199.984375 189.769531 C 199.214844 190.699219 198.421875 191.605469 197.605469 192.492188 C 196.792969 193.382812 195.953125 194.25 195.097656 195.097656 Z M 195.097656 195.097656 " fill-opacity="1" fill-rule="nonzero"/><path fill="#b7db63" d="M 194.960938 116.320312 C 193.929688 114.332031 192.789062 112.410156 191.539062 110.554688 C 190.289062 108.699219 188.9375 106.917969 187.484375 105.21875 C 186.027344 103.515625 184.480469 101.902344 182.84375 100.378906 C 181.203125 98.855469 179.480469 97.433594 177.679688 96.105469 C 175.875 94.78125 174.003906 93.5625 172.058594 92.449219 C 170.117188 91.339844 168.117188 90.34375 166.058594 89.460938 C 164 88.582031 161.898438 87.820312 159.753906 87.179688 C 157.609375 86.542969 155.433594 86.027344 153.230469 85.636719 C 152.933594 85.59375 152.636719 85.578125 152.339844 85.59375 C 152.042969 85.605469 151.746094 85.648438 151.457031 85.71875 C 151.167969 85.789062 150.886719 85.886719 150.617188 86.015625 C 150.34375 86.140625 150.085938 86.289062 149.847656 86.464844 C 149.605469 86.640625 149.378906 86.835938 149.175781 87.054688 C 148.972656 87.273438 148.792969 87.507812 148.632812 87.761719 C 148.476562 88.015625 148.34375 88.28125 148.234375 88.558594 C 148.128906 88.839844 148.050781 89.125 148 89.417969 C 147.949219 89.714844 147.925781 90.011719 147.929688 90.308594 C 147.9375 90.609375 147.972656 90.902344 148.035156 91.195312 C 148.097656 91.488281 148.191406 91.769531 148.308594 92.042969 C 148.425781 92.316406 148.570312 92.578125 148.738281 92.824219 C 148.90625 93.070312 149.097656 93.300781 149.3125 93.507812 C 149.523438 93.71875 149.753906 93.90625 150.003906 94.070312 C 150.253906 94.234375 150.515625 94.375 150.792969 94.488281 C 151.066406 94.601562 151.351562 94.6875 151.644531 94.746094 C 153.5 95.078125 155.328125 95.511719 157.132812 96.050781 C 158.9375 96.585938 160.707031 97.226562 162.4375 97.96875 C 164.167969 98.710938 165.851562 99.550781 167.484375 100.484375 C 169.121094 101.417969 170.695312 102.445312 172.210938 103.558594 C 173.730469 104.675781 175.179688 105.875 176.558594 107.15625 C 177.9375 108.4375 179.238281 109.796875 180.460938 111.226562 C 181.6875 112.660156 182.824219 114.15625 183.875 115.71875 C 184.925781 117.28125 185.886719 118.898438 186.75 120.570312 C 186.890625 120.84375 187.050781 121.101562 187.242188 121.339844 C 187.429688 121.582031 187.640625 121.800781 187.871094 122 C 188.101562 122.199219 188.351562 122.375 188.621094 122.527344 C 188.886719 122.675781 189.164062 122.796875 189.457031 122.890625 C 189.746094 122.988281 190.042969 123.050781 190.347656 123.085938 C 190.652344 123.121094 190.957031 123.128906 191.261719 123.101562 C 191.566406 123.078125 191.867188 123.023438 192.160156 122.9375 C 192.453125 122.855469 192.738281 122.742188 193.007812 122.601562 C 193.28125 122.460938 193.535156 122.296875 193.777344 122.105469 C 194.015625 121.914062 194.230469 121.699219 194.429688 121.464844 C 194.625 121.230469 194.796875 120.980469 194.945312 120.710938 C 195.089844 120.445312 195.210938 120.164062 195.300781 119.871094 C 195.390625 119.578125 195.453125 119.28125 195.484375 118.976562 C 195.519531 118.671875 195.519531 118.367188 195.492188 118.0625 C 195.460938 117.757812 195.40625 117.460938 195.316406 117.167969 C 195.230469 116.875 195.113281 116.589844 194.96875 116.320312 Z M 194.960938 116.320312 " fill-opacity="1" fill-rule="nonzero"/><path fill="#b7db63" d="M 132.917969 85.644531 C 128.242188 86.472656 123.730469 87.847656 119.390625 89.773438 C 119.113281 89.898438 118.851562 90.046875 118.601562 90.222656 C 118.351562 90.394531 118.125 90.59375 117.914062 90.816406 C 117.707031 91.035156 117.519531 91.273438 117.359375 91.53125 C 117.195312 91.785156 117.058594 92.058594 116.949219 92.339844 C 116.839844 92.625 116.761719 92.917969 116.710938 93.214844 C 116.65625 93.515625 116.636719 93.816406 116.644531 94.121094 C 116.652344 94.425781 116.6875 94.722656 116.753906 95.019531 C 116.820312 95.316406 116.917969 95.605469 117.039062 95.882812 C 117.164062 96.160156 117.3125 96.421875 117.488281 96.671875 C 117.664062 96.917969 117.859375 97.148438 118.082031 97.355469 C 118.300781 97.566406 118.539062 97.753906 118.796875 97.914062 C 119.054688 98.078125 119.324219 98.210938 119.609375 98.320312 C 119.890625 98.429688 120.183594 98.511719 120.484375 98.5625 C 120.78125 98.613281 121.082031 98.636719 121.386719 98.628906 C 121.691406 98.621094 121.992188 98.582031 122.289062 98.515625 C 122.585938 98.449219 122.871094 98.355469 123.148438 98.230469 C 126.796875 96.613281 130.585938 95.457031 134.515625 94.761719 C 134.8125 94.707031 135.105469 94.628906 135.386719 94.515625 C 135.671875 94.40625 135.941406 94.269531 136.199219 94.109375 C 136.453125 93.945312 136.691406 93.757812 136.914062 93.546875 C 137.132812 93.339844 137.328125 93.109375 137.503906 92.859375 C 137.679688 92.609375 137.828125 92.347656 137.949219 92.070312 C 138.070312 91.789062 138.164062 91.503906 138.230469 91.207031 C 138.296875 90.910156 138.332031 90.609375 138.339844 90.304688 C 138.347656 90.003906 138.324219 89.699219 138.269531 89.402344 C 138.21875 89.101562 138.136719 88.8125 138.027344 88.527344 C 137.917969 88.246094 137.78125 87.972656 137.617188 87.71875 C 137.453125 87.460938 137.265625 87.222656 137.054688 87.003906 C 136.84375 86.785156 136.617188 86.589844 136.367188 86.414062 C 136.117188 86.238281 135.855469 86.089844 135.574219 85.96875 C 135.296875 85.847656 135.011719 85.753906 134.714844 85.6875 C 134.417969 85.621094 134.117188 85.585938 133.8125 85.578125 C 133.507812 85.574219 133.207031 85.597656 132.90625 85.648438 Z M 132.917969 85.644531 " fill-opacity="1" fill-rule="nonzero"/><path fill="#b7db63" d="M 338.921875 292.898438 L 280.742188 234.71875 C 279.75 233.726562 278.695312 232.804688 277.578125 231.949219 C 276.464844 231.089844 275.296875 230.3125 274.082031 229.605469 C 272.867188 228.902344 271.609375 228.277344 270.3125 227.734375 C 269.015625 227.195312 267.691406 226.738281 266.332031 226.367188 C 264.976562 226 263.601562 225.71875 262.210938 225.523438 C 260.820312 225.332031 259.417969 225.230469 258.015625 225.222656 C 256.609375 225.210938 255.207031 225.292969 253.8125 225.460938 C 252.417969 225.632812 251.039062 225.894531 249.679688 226.242188 L 230.933594 207.5 C 231.933594 206.128906 232.90625 204.742188 233.84375 203.328125 C 234.78125 201.914062 235.683594 200.480469 236.554688 199.027344 C 237.425781 197.570312 238.261719 196.097656 239.0625 194.601562 C 239.863281 193.109375 240.628906 191.597656 241.359375 190.066406 C 242.09375 188.539062 242.789062 186.992188 243.445312 185.429688 C 244.105469 183.867188 244.726562 182.289062 245.3125 180.699219 C 245.898438 179.109375 246.445312 177.503906 246.953125 175.886719 C 247.464844 174.269531 247.9375 172.644531 248.371094 171.003906 C 248.804688 169.363281 249.203125 167.714844 249.558594 166.058594 C 249.914062 164.402344 250.234375 162.738281 250.511719 161.066406 C 250.792969 159.394531 251.035156 157.714844 251.234375 156.03125 C 251.433594 154.347656 251.597656 152.660156 251.71875 150.96875 C 251.839844 149.277344 251.925781 147.585938 251.96875 145.890625 C 252.011719 144.195312 252.015625 142.5 251.976562 140.804688 C 251.941406 139.109375 251.867188 137.417969 251.75 135.726562 C 251.636719 134.035156 251.480469 132.347656 251.289062 130.664062 C 251.09375 128.976562 250.863281 127.300781 250.589844 125.625 C 250.316406 123.953125 250.003906 122.285156 249.65625 120.628906 C 249.304688 118.96875 248.917969 117.320312 248.488281 115.675781 C 248.0625 114.035156 247.597656 112.40625 247.09375 110.789062 C 246.589844 109.167969 246.050781 107.5625 245.472656 105.96875 C 244.894531 104.375 244.277344 102.796875 243.625 101.230469 C 242.972656 99.664062 242.285156 98.117188 241.5625 96.585938 C 240.835938 95.050781 240.078125 93.535156 239.28125 92.039062 C 238.484375 90.542969 237.65625 89.0625 236.792969 87.605469 C 235.929688 86.144531 235.03125 84.707031 234.097656 83.292969 C 233.167969 81.875 232.203125 80.480469 231.207031 79.109375 C 230.210938 77.738281 229.183594 76.390625 228.121094 75.066406 C 227.0625 73.742188 225.972656 72.445312 224.855469 71.171875 C 223.734375 69.898438 222.585938 68.652344 221.40625 67.433594 C 220.226562 66.214844 219.023438 65.023438 217.789062 63.859375 C 216.554688 62.699219 215.292969 61.566406 214.007812 60.460938 C 212.71875 59.355469 211.40625 58.285156 210.070312 57.242188 C 208.734375 56.199219 207.375 55.1875 205.988281 54.207031 C 204.605469 53.230469 203.199219 52.285156 201.769531 51.371094 C 200.34375 50.457031 198.894531 49.578125 197.421875 48.730469 C 195.953125 47.886719 194.464844 47.074219 192.957031 46.296875 C 191.453125 45.523438 189.925781 44.78125 188.382812 44.078125 C 186.84375 43.371094 185.285156 42.703125 183.710938 42.070312 C 182.140625 41.4375 180.550781 40.84375 178.949219 40.285156 C 177.351562 39.726562 175.738281 39.207031 174.113281 38.722656 C 172.488281 38.242188 170.851562 37.796875 169.203125 37.390625 C 167.558594 36.984375 165.902344 36.617188 164.242188 36.289062 C 162.578125 35.957031 160.90625 35.667969 159.230469 35.417969 C 157.554688 35.167969 155.871094 34.953125 154.1875 34.78125 C 152.5 34.609375 150.808594 34.476562 149.117188 34.382812 C 147.425781 34.289062 145.730469 34.234375 144.035156 34.21875 C 142.339844 34.207031 140.644531 34.230469 138.949219 34.296875 C 137.253906 34.359375 135.5625 34.464844 133.875 34.609375 C 132.183594 34.753906 130.5 34.933594 128.820312 35.15625 C 127.140625 35.378906 125.464844 35.640625 123.796875 35.941406 C 122.128906 36.242188 120.464844 36.582031 118.8125 36.960938 C 117.160156 37.339844 115.519531 37.753906 113.882812 38.210938 C 112.25 38.664062 110.628906 39.15625 109.019531 39.6875 C 107.410156 40.21875 105.8125 40.785156 104.226562 41.390625 C 102.644531 41.996094 101.074219 42.640625 99.523438 43.316406 C 97.96875 43.996094 96.429688 44.710938 94.910156 45.460938 C 93.390625 46.210938 91.886719 46.996094 90.40625 47.816406 C 88.921875 48.636719 87.457031 49.492188 86.011719 50.378906 C 84.570312 51.269531 83.148438 52.191406 81.746094 53.148438 C 80.347656 54.101562 78.96875 55.089844 77.613281 56.109375 C 76.257812 57.128906 74.929688 58.179688 73.625 59.261719 C 72.316406 60.34375 71.039062 61.453125 69.785156 62.597656 C 68.53125 63.738281 67.304688 64.90625 66.105469 66.105469 C 64.910156 67.304688 63.738281 68.53125 62.597656 69.785156 C 61.457031 71.039062 60.347656 72.320312 59.265625 73.625 C 58.183594 74.929688 57.136719 76.261719 56.117188 77.613281 C 55.097656 78.96875 54.113281 80.347656 53.15625 81.746094 C 52.203125 83.148438 51.28125 84.570312 50.394531 86.015625 C 49.503906 87.457031 48.652344 88.921875 47.832031 90.40625 C 47.011719 91.886719 46.226562 93.390625 45.476562 94.910156 C 44.730469 96.429688 44.015625 97.96875 43.335938 99.519531 C 42.660156 101.074219 42.019531 102.644531 41.414062 104.226562 C 40.808594 105.808594 40.242188 107.40625 39.710938 109.015625 C 39.183594 110.625 38.691406 112.246094 38.234375 113.882812 C 37.78125 115.515625 37.363281 117.15625 36.988281 118.808594 C 36.609375 120.460938 36.269531 122.121094 35.972656 123.789062 C 35.671875 125.457031 35.410156 127.132812 35.1875 128.8125 C 34.964844 130.492188 34.785156 132.175781 34.640625 133.867188 C 34.496094 135.554688 34.394531 137.246094 34.328125 138.941406 C 34.265625 140.632812 34.238281 142.328125 34.253906 144.023438 C 34.269531 145.71875 34.324219 147.410156 34.417969 149.105469 C 34.511719 150.796875 34.644531 152.484375 34.816406 154.171875 C 34.992188 155.855469 35.203125 157.539062 35.453125 159.214844 C 35.707031 160.890625 35.996094 162.558594 36.324219 164.222656 C 36.652344 165.886719 37.023438 167.539062 37.429688 169.183594 C 37.835938 170.832031 38.28125 172.464844 38.761719 174.089844 C 39.246094 175.714844 39.765625 177.328125 40.324219 178.929688 C 40.882812 180.527344 41.476562 182.113281 42.109375 183.6875 C 42.742188 185.261719 43.410156 186.816406 44.113281 188.359375 C 44.820312 189.898438 45.558594 191.425781 46.335938 192.929688 C 47.113281 194.4375 47.921875 195.925781 48.769531 197.394531 C 49.613281 198.863281 50.492188 200.3125 51.40625 201.738281 C 52.320312 203.167969 53.265625 204.574219 54.246094 205.957031 C 55.222656 207.339844 56.234375 208.703125 57.277344 210.039062 C 58.320312 211.375 59.390625 212.6875 60.496094 213.972656 C 61.597656 215.257812 62.730469 216.519531 63.894531 217.753906 C 65.054688 218.984375 66.246094 220.191406 67.464844 221.371094 C 68.683594 222.546875 69.929688 223.695312 71.203125 224.816406 C 72.472656 225.9375 73.773438 227.027344 75.09375 228.085938 C 76.417969 229.144531 77.765625 230.171875 79.136719 231.167969 C 80.507812 232.164062 81.902344 233.128906 83.316406 234.058594 C 84.734375 234.992188 86.171875 235.886719 87.628906 236.753906 C 89.085938 237.617188 90.566406 238.445312 92.0625 239.242188 C 93.558594 240.035156 95.074219 240.796875 96.605469 241.519531 C 98.136719 242.246094 99.6875 242.933594 101.25 243.585938 C 102.816406 244.238281 104.394531 244.851562 105.988281 245.429688 C 107.582031 246.011719 109.1875 246.550781 110.804688 247.054688 C 112.421875 247.558594 114.050781 248.023438 115.691406 248.449219 C 117.332031 248.878906 118.980469 249.265625 120.640625 249.617188 C 122.296875 249.96875 123.964844 250.277344 125.636719 250.550781 C 127.308594 250.824219 128.988281 251.058594 130.671875 251.25 C 132.355469 251.445312 134.042969 251.601562 135.734375 251.714844 C 137.425781 251.832031 139.117188 251.90625 140.8125 251.945312 C 142.507812 251.980469 144.203125 251.976562 145.894531 251.933594 C 147.589844 251.890625 149.28125 251.808594 150.972656 251.6875 C 152.664062 251.566406 154.351562 251.40625 156.035156 251.203125 C 157.714844 251.003906 159.394531 250.765625 161.066406 250.484375 C 162.738281 250.207031 164.402344 249.886719 166.058594 249.53125 C 167.714844 249.175781 169.363281 248.78125 171.003906 248.347656 C 172.640625 247.914062 174.269531 247.441406 175.886719 246.933594 C 177.5 246.421875 179.105469 245.875 180.695312 245.292969 C 182.289062 244.707031 183.863281 244.085938 185.425781 243.429688 C 186.988281 242.769531 188.535156 242.074219 190.0625 241.34375 C 191.59375 240.617188 193.105469 239.851562 194.597656 239.050781 C 196.09375 238.25 197.566406 237.414062 199.023438 236.542969 C 200.476562 235.675781 201.910156 234.769531 203.324219 233.835938 C 204.734375 232.898438 206.125 231.929688 207.492188 230.925781 L 226.222656 249.664062 C 225.539062 252.308594 225.191406 254.996094 225.179688 257.730469 C 225.175781 259.867188 225.378906 261.984375 225.792969 264.082031 C 226.207031 266.179688 226.824219 268.214844 227.640625 270.191406 C 228.460938 272.164062 229.464844 274.039062 230.65625 275.816406 C 231.84375 277.589844 233.195312 279.234375 234.710938 280.742188 L 242.84375 288.871094 L 292.882812 338.910156 C 293.636719 339.664062 294.425781 340.378906 295.25 341.054688 C 296.074219 341.730469 296.929688 342.363281 297.816406 342.957031 C 298.703125 343.550781 299.613281 344.097656 300.554688 344.597656 C 301.496094 345.101562 302.457031 345.554688 303.441406 345.964844 C 304.425781 346.371094 305.429688 346.730469 306.449219 347.039062 C 307.46875 347.347656 308.5 347.609375 309.546875 347.816406 C 310.59375 348.023438 311.644531 348.179688 312.707031 348.285156 C 313.765625 348.390625 314.828125 348.441406 315.894531 348.441406 C 316.960938 348.441406 318.023438 348.390625 319.085938 348.285156 C 320.144531 348.179688 321.199219 348.023438 322.246094 347.816406 C 323.289062 347.609375 324.320312 347.347656 325.34375 347.039062 C 326.363281 346.730469 327.363281 346.371094 328.347656 345.964844 C 329.332031 345.554688 330.296875 345.101562 331.234375 344.597656 C 332.175781 344.097656 333.089844 343.550781 333.976562 342.957031 C 334.863281 342.363281 335.714844 341.730469 336.539062 341.054688 C 337.363281 340.378906 338.152344 339.664062 338.90625 338.910156 C 339.660156 338.15625 340.375 337.367188 341.050781 336.542969 C 341.726562 335.71875 342.363281 334.863281 342.953125 333.976562 C 343.546875 333.09375 344.09375 332.179688 344.597656 331.238281 C 345.097656 330.296875 345.554688 329.335938 345.960938 328.351562 C 346.371094 327.367188 346.726562 326.363281 347.039062 325.34375 C 347.347656 324.324219 347.605469 323.292969 347.8125 322.246094 C 348.019531 321.203125 348.175781 320.148438 348.28125 319.085938 C 348.386719 318.027344 348.4375 316.964844 348.4375 315.898438 C 348.4375 314.832031 348.386719 313.769531 348.28125 312.707031 C 348.175781 311.648438 348.019531 310.59375 347.8125 309.550781 C 347.605469 308.503906 347.347656 307.472656 347.039062 306.453125 C 346.726562 305.429688 346.371094 304.429688 345.960938 303.445312 C 345.554688 302.460938 345.097656 301.496094 344.597656 300.558594 C 344.09375 299.617188 343.546875 298.703125 342.953125 297.816406 C 342.363281 296.933594 341.726562 296.078125 341.050781 295.253906 C 340.375 294.429688 339.660156 293.640625 338.90625 292.886719 Z M 72.652344 213.558594 C 71.46875 212.414062 70.316406 211.238281 69.191406 210.035156 C 68.066406 208.832031 66.96875 207.601562 65.90625 206.34375 C 64.84375 205.085938 63.808594 203.800781 62.808594 202.492188 C 61.808594 201.183594 60.839844 199.851562 59.90625 198.496094 C 58.972656 197.136719 58.070312 195.757812 57.207031 194.359375 C 56.339844 192.957031 55.507812 191.535156 54.714844 190.089844 C 53.917969 188.648438 53.160156 187.1875 52.4375 185.707031 C 51.714844 184.226562 51.027344 182.730469 50.378906 181.214844 C 49.730469 179.699219 49.117188 178.171875 48.546875 176.625 C 47.972656 175.082031 47.4375 173.523438 46.945312 171.953125 C 46.449219 170.382812 45.992188 168.796875 45.574219 167.203125 C 45.15625 165.609375 44.78125 164.007812 44.441406 162.394531 C 44.105469 160.78125 43.808594 159.164062 43.550781 157.535156 C 43.292969 155.910156 43.074219 154.277344 42.898438 152.636719 C 42.722656 151 42.589844 149.359375 42.492188 147.714844 C 42.398438 146.070312 42.34375 144.421875 42.332031 142.773438 C 42.316406 141.128906 42.34375 139.480469 42.414062 137.835938 C 42.480469 136.1875 42.589844 134.546875 42.742188 132.90625 C 42.890625 131.265625 43.082031 129.628906 43.3125 127.996094 C 43.542969 126.367188 43.816406 124.742188 44.128906 123.125 C 44.4375 121.507812 44.789062 119.898438 45.183594 118.296875 C 45.574219 116.695312 46.003906 115.105469 46.476562 113.527344 C 46.945312 111.949219 47.453125 110.382812 48.003906 108.828125 C 48.550781 107.277344 49.136719 105.738281 49.761719 104.210938 C 50.386719 102.6875 51.046875 101.179688 51.746094 99.6875 C 52.445312 98.195312 53.179688 96.722656 53.953125 95.265625 C 54.726562 93.8125 55.535156 92.375 56.375 90.960938 C 57.21875 89.546875 58.097656 88.152344 59.011719 86.78125 C 59.921875 85.410156 60.871094 84.0625 61.847656 82.734375 C 62.828125 81.410156 63.839844 80.113281 64.882812 78.835938 C 65.925781 77.5625 67.003906 76.316406 68.109375 75.09375 C 69.214844 73.871094 70.347656 72.679688 71.515625 71.515625 C 72.679688 70.347656 73.871094 69.214844 75.09375 68.109375 C 76.316406 67.003906 77.5625 65.925781 78.835938 64.882812 C 80.113281 63.839844 81.410156 62.828125 82.734375 61.847656 C 84.0625 60.871094 85.410156 59.921875 86.78125 59.011719 C 88.152344 58.097656 89.546875 57.21875 90.960938 56.375 C 92.375 55.535156 93.8125 54.726562 95.265625 53.953125 C 96.722656 53.179688 98.195312 52.445312 99.6875 51.746094 C 101.179688 51.046875 102.6875 50.386719 104.210938 49.761719 C 105.738281 49.136719 107.277344 48.550781 108.828125 48.003906 C 110.382812 47.453125 111.949219 46.945312 113.527344 46.476562 C 115.105469 46.003906 116.695312 45.574219 118.296875 45.183594 C 119.898438 44.789062 121.507812 44.4375 123.125 44.128906 C 124.742188 43.816406 126.367188 43.542969 127.996094 43.3125 C 129.628906 43.082031 131.265625 42.890625 132.90625 42.742188 C 134.546875 42.589844 136.1875 42.480469 137.835938 42.414062 C 139.480469 42.34375 141.128906 42.316406 142.773438 42.332031 C 144.421875 42.34375 146.070312 42.398438 147.714844 42.492188 C 149.359375 42.589844 151 42.722656 152.636719 42.898438 C 154.277344 43.074219 155.910156 43.292969 157.535156 43.550781 C 159.164062 43.808594 160.78125 44.105469 162.394531 44.441406 C 164.007812 44.78125 165.609375 45.15625 167.203125 45.574219 C 168.796875 45.992188 170.382812 46.449219 171.953125 46.945312 C 173.523438 47.4375 175.082031 47.972656 176.625 48.546875 C 178.171875 49.117188 179.699219 49.730469 181.214844 50.378906 C 182.730469 51.027344 184.226562 51.714844 185.707031 52.4375 C 187.1875 53.160156 188.648438 53.917969 190.089844 54.714844 C 191.535156 55.507812 192.957031 56.339844 194.359375 57.207031 C 195.757812 58.070312 197.136719 58.972656 198.496094 59.90625 C 199.851562 60.839844 201.183594 61.808594 202.492188 62.808594 C 203.800781 63.808594 205.085938 64.84375 206.34375 65.90625 C 207.601562 66.96875 208.832031 68.066406 210.035156 69.191406 C 211.238281 70.316406 212.414062 71.46875 213.558594 72.652344 C 214.683594 73.8125 215.777344 75 216.839844 76.210938 C 217.90625 77.425781 218.941406 78.664062 219.945312 79.925781 C 220.953125 81.1875 221.925781 82.476562 222.867188 83.785156 C 223.8125 85.097656 224.722656 86.429688 225.597656 87.78125 C 226.476562 89.136719 227.320312 90.511719 228.132812 91.90625 C 228.945312 93.304688 229.71875 94.71875 230.460938 96.152344 C 231.203125 97.585938 231.910156 99.035156 232.582031 100.503906 C 233.253906 101.972656 233.890625 103.453125 234.492188 104.953125 C 235.089844 106.453125 235.652344 107.964844 236.179688 109.488281 C 236.707031 111.015625 237.195312 112.554688 237.648438 114.101562 C 238.097656 115.652344 238.511719 117.210938 238.886719 118.78125 C 239.261719 120.351562 239.601562 121.929688 239.898438 123.515625 C 240.199219 125.101562 240.457031 126.695312 240.679688 128.292969 C 240.902344 129.894531 241.085938 131.496094 241.226562 133.105469 C 241.371094 134.710938 241.476562 136.320312 241.542969 137.933594 C 241.609375 139.546875 241.632812 141.160156 241.621094 142.773438 C 241.609375 144.390625 241.554688 146.003906 241.464844 147.613281 C 241.375 149.226562 241.242188 150.832031 241.074219 152.4375 C 240.902344 154.042969 240.695312 155.644531 240.449219 157.238281 C 240.199219 158.835938 239.914062 160.421875 239.589844 162.003906 C 239.265625 163.585938 238.902344 165.15625 238.503906 166.722656 C 238.101562 168.285156 237.664062 169.835938 237.1875 171.378906 C 236.710938 172.921875 236.199219 174.453125 235.648438 175.96875 C 235.097656 177.488281 234.507812 178.988281 233.886719 180.480469 C 233.261719 181.96875 232.601562 183.441406 231.90625 184.898438 C 231.210938 186.355469 230.480469 187.792969 229.714844 189.214844 C 228.949219 190.636719 228.152344 192.035156 227.320312 193.417969 C 226.484375 194.800781 225.617188 196.164062 224.71875 197.503906 C 223.820312 198.84375 222.886719 200.160156 221.925781 201.457031 C 220.960938 202.75 219.96875 204.023438 218.941406 205.269531 C 217.917969 206.515625 216.863281 207.738281 215.777344 208.933594 C 214.691406 210.128906 213.578125 211.296875 212.4375 212.4375 C 211.296875 213.578125 210.128906 214.691406 208.933594 215.777344 C 207.738281 216.863281 206.515625 217.917969 205.269531 218.941406 C 204.023438 219.96875 202.75 220.960938 201.457031 221.925781 C 200.160156 222.886719 198.84375 223.820312 197.503906 224.71875 C 196.164062 225.617188 194.800781 226.484375 193.417969 227.320312 C 192.035156 228.152344 190.636719 228.949219 189.214844 229.714844 C 187.792969 230.480469 186.355469 231.210938 184.898438 231.90625 C 183.441406 232.601562 181.96875 233.261719 180.480469 233.886719 C 178.988281 234.507812 177.488281 235.097656 175.96875 235.648438 C 174.453125 236.199219 172.921875 236.710938 171.378906 237.1875 C 169.835938 237.664062 168.285156 238.101562 166.722656 238.503906 C 165.15625 238.902344 163.585938 239.265625 162.003906 239.589844 C 160.421875 239.914062 158.835938 240.199219 157.238281 240.449219 C 155.644531 240.695312 154.042969 240.902344 152.4375 241.074219 C 150.832031 241.242188 149.226562 241.375 147.613281 241.464844 C 146.003906 241.554688 144.390625 241.609375 142.773438 241.621094 C 141.160156 241.632812 139.546875 241.609375 137.933594 241.542969 C 136.320312 241.476562 134.710938 241.371094 133.105469 241.226562 C 131.496094 241.085938 129.894531 240.902344 128.292969 240.679688 C 126.695312 240.457031 125.101562 240.199219 123.515625 239.898438 C 121.929688 239.601562 120.351562 239.261719 118.78125 238.886719 C 117.210938 238.511719 115.652344 238.097656 114.101562 237.648438 C 112.554688 237.195312 111.015625 236.707031 109.488281 236.179688 C 107.964844 235.652344 106.453125 235.089844 104.953125 234.492188 C 103.453125 233.890625 101.972656 233.253906 100.503906 232.582031 C 99.035156 231.910156 97.585938 231.203125 96.152344 230.460938 C 94.71875 229.71875 93.304688 228.945312 91.90625 228.132812 C 90.511719 227.320312 89.136719 226.476562 87.78125 225.597656 C 86.429688 224.722656 85.097656 223.8125 83.785156 222.867188 C 82.476562 221.925781 81.1875 220.953125 79.925781 219.945312 C 78.664062 218.941406 77.425781 217.90625 76.210938 216.839844 C 75 215.777344 73.8125 214.683594 72.652344 213.558594 Z M 214.734375 225.082031 C 216.5625 223.484375 218.363281 221.84375 220.105469 220.101562 C 221.847656 218.359375 223.488281 216.5625 225.089844 214.734375 L 240.496094 230.148438 C 238.394531 231.453125 236.464844 232.972656 234.710938 234.71875 C 232.96875 236.472656 231.445312 238.398438 230.136719 240.5 Z M 234.4375 257.730469 C 234.4375 256.585938 234.523438 255.445312 234.691406 254.3125 C 234.863281 253.179688 235.113281 252.066406 235.445312 250.972656 C 235.777344 249.875 236.191406 248.8125 236.679688 247.777344 C 237.171875 246.742188 237.734375 245.75 238.371094 244.796875 C 239.007812 243.84375 239.710938 242.945312 240.480469 242.097656 C 241.25 241.25 242.078125 240.460938 242.960938 239.734375 C 243.847656 239.007812 244.78125 238.351562 245.761719 237.761719 C 246.746094 237.175781 247.765625 236.660156 248.824219 236.222656 C 249.882812 235.785156 250.964844 235.425781 252.074219 235.148438 C 253.1875 234.871094 254.3125 234.675781 255.449219 234.5625 C 256.589844 234.449219 257.730469 234.421875 258.875 234.476562 C 260.019531 234.535156 261.152344 234.671875 262.277344 234.894531 C 263.398438 235.117188 264.5 235.421875 265.578125 235.808594 C 266.65625 236.191406 267.699219 236.65625 268.710938 237.195312 C 269.71875 237.734375 270.6875 238.34375 271.605469 239.023438 C 272.527344 239.707031 273.390625 240.449219 274.203125 241.257812 L 279.066406 246.125 L 246.125 279.066406 L 241.257812 274.199219 C 240.175781 273.121094 239.207031 271.945312 238.355469 270.675781 C 237.503906 269.402344 236.785156 268.0625 236.199219 266.648438 C 235.613281 265.234375 235.171875 263.777344 234.875 262.277344 C 234.578125 260.773438 234.433594 259.257812 234.4375 257.730469 Z M 332.378906 332.382812 C 331.839844 332.917969 331.273438 333.429688 330.683594 333.914062 C 330.09375 334.394531 329.480469 334.847656 328.847656 335.273438 C 328.210938 335.695312 327.558594 336.085938 326.886719 336.445312 C 326.210938 336.804688 325.523438 337.128906 324.820312 337.421875 C 324.113281 337.710938 323.398438 337.96875 322.667969 338.1875 C 321.9375 338.410156 321.199219 338.59375 320.449219 338.742188 C 319.703125 338.890625 318.949219 339.003906 318.191406 339.078125 C 317.429688 339.152344 316.667969 339.191406 315.90625 339.191406 C 315.144531 339.191406 314.382812 339.152344 313.625 339.078125 C 312.867188 339.003906 312.113281 338.890625 311.363281 338.742188 C 310.617188 338.59375 309.878906 338.410156 309.148438 338.1875 C 308.417969 337.96875 307.699219 337.710938 306.996094 337.421875 C 306.292969 337.128906 305.601562 336.804688 304.929688 336.445312 C 304.257812 336.085938 303.601562 335.695312 302.96875 335.273438 C 302.332031 334.847656 301.722656 334.394531 301.132812 333.914062 C 300.542969 333.429688 299.976562 332.917969 299.4375 332.382812 L 252.652344 285.597656 L 285.605469 252.65625 L 332.378906 299.4375 C 332.917969 299.980469 333.429688 300.542969 333.910156 301.132812 C 334.394531 301.722656 334.847656 302.335938 335.269531 302.96875 C 335.695312 303.605469 336.085938 304.257812 336.445312 304.929688 C 336.804688 305.605469 337.128906 306.292969 337.417969 306.996094 C 337.710938 307.703125 337.96875 308.421875 338.1875 309.148438 C 338.410156 309.878906 338.59375 310.617188 338.742188 311.367188 C 338.890625 312.113281 339.003906 312.867188 339.078125 313.628906 C 339.152344 314.386719 339.191406 315.148438 339.191406 315.910156 C 339.191406 316.671875 339.152344 317.433594 339.078125 318.191406 C 339.003906 318.953125 338.890625 319.703125 338.742188 320.453125 C 338.59375 321.199219 338.410156 321.941406 338.1875 322.667969 C 337.96875 323.398438 337.710938 324.117188 337.417969 324.820312 C 337.128906 325.527344 336.804688 326.214844 336.445312 326.886719 C 336.085938 327.5625 335.695312 328.214844 335.269531 328.847656 C 334.847656 329.484375 334.394531 330.097656 333.910156 330.6875 C 333.429688 331.277344 332.917969 331.839844 332.378906 332.382812 Z M 332.378906 332.382812 " fill-opacity="1" fill-rule="nonzero"/><g fill="#ffffff" fill-opacity="1"><g transform="translate(333.749983, 43.124997)"><g><path d="M 2.859375 -1.859375 L 2.953125 -1.6875 C 2.859375 -1.300781 2.738281 -0.890625 2.59375 -0.453125 C 2.457031 -0.0234375 2.300781 0.40625 2.125 0.84375 C 1.957031 1.28125 1.789062 1.6875 1.625 2.0625 L 0.65625 2.0625 C 0.757812 1.644531 0.863281 1.207031 0.96875 0.75 C 1.070312 0.289062 1.164062 -0.160156 1.25 -0.609375 C 1.34375 -1.066406 1.414062 -1.484375 1.46875 -1.859375 Z M 2.859375 -1.859375 "/></g></g></g></svg>